<svg width="20" height="21" viewBox="0 0 20 21" fill="none" xmlns="http://www.w3.org/2000/svg">
<g clip-path="url(#clip0_136_3029)">
<path d="M18.4597 20.0819C18.8502 20.4725 19.4834 20.4725 19.8739 20.0819C20.2645 19.6914 20.2645 19.0583 19.8739 18.6677L18.4597 20.0819ZM14.9315 8.59052C14.9315 12.2074 11.9994 15.1395 8.38251 15.1395V17.1395C13.104 17.1395 16.9315 13.312 16.9315 8.59052H14.9315ZM8.38251 15.1395C4.76559 15.1395 1.8335 12.2074 1.8335 8.59052H-0.166504C-0.166504 13.312 3.66102 17.1395 8.38251 17.1395V15.1395ZM1.8335 8.59052C1.8335 4.9736 4.76559 2.0415 8.38251 2.0415V0.0415039C3.66102 0.0415039 -0.166504 3.86903 -0.166504 8.59052H1.8335ZM8.38251 2.0415C11.9994 2.0415 14.9315 4.9736 14.9315 8.59052H16.9315C16.9315 3.86903 13.104 0.0415039 8.38251 0.0415039V2.0415ZM13.0676 14.6898L18.4597 20.0819L19.8739 18.6677L14.4818 13.2756L13.0676 14.6898Z" fill="#FFF6EB"/>
</g>
<defs>
<clipPath id="clip0_136_3029">
<rect width="20" height="20" fill="white" transform="translate(0 0.208008)"/>
</clipPath>
</defs>
</svg>
