<svg width="55" height="59" viewBox="0 0 55 59" fill="none" xmlns="http://www.w3.org/2000/svg">
<g filter="url(#filter0_d_136_3043)">
<rect x="2" y="9.20801" width="46" height="46" rx="6" fill="#1E1E1E" fill-opacity="0.42" shape-rendering="crispEdges"/>
<path fill-rule="evenodd" clip-rule="evenodd" d="M24.9944 26.631C23.3449 24.7087 20.5943 24.1916 18.5276 25.9519C16.461 27.7121 16.17 30.6551 17.793 32.7369C19.1423 34.4678 23.2261 38.1184 24.5645 39.2999C24.7142 39.4321 24.7891 39.4982 24.8764 39.5242C24.9526 39.5468 25.0361 39.5468 25.1123 39.5242C25.1996 39.4982 25.2745 39.4321 25.4242 39.2999C26.7626 38.1184 30.8463 34.4678 32.1957 32.7369C33.8187 30.6551 33.5633 27.6936 31.4611 25.9519C29.3589 24.2101 26.6438 24.7087 24.9944 26.631Z" stroke="white" stroke-width="2" stroke-linecap="round" stroke-linejoin="round"/>
</g>
<rect x="37" y="0.183594" width="18" height="18" rx="9" fill="#D3AD7F"/>
<path d="M45.5302 14.3129C44.9516 14.3129 44.4315 14.2021 43.9698 13.9805C43.5112 13.7558 43.145 13.448 42.8711 13.0572C42.5972 12.6663 42.451 12.2201 42.4325 11.7184H43.8175C43.8513 12.1246 44.0314 12.4586 44.3576 12.7202C44.6838 12.9818 45.0747 13.1126 45.5302 13.1126C45.8933 13.1126 46.215 13.0295 46.495 12.8633C46.7782 12.694 46.9998 12.4616 47.1598 12.1662C47.3229 11.8707 47.4045 11.5337 47.4045 11.1552C47.4045 10.7705 47.3214 10.4273 47.1552 10.1257C46.989 9.8241 46.7597 9.58712 46.4673 9.41477C46.178 9.24242 45.8456 9.15471 45.4702 9.15163C45.1839 9.15163 44.8962 9.20088 44.6069 9.29936C44.3176 9.39785 44.0837 9.52711 43.9052 9.68714L42.5987 9.49325L43.1296 4.72905H48.3278V5.95241H44.3161L44.016 8.59766H44.0714C44.256 8.41915 44.5007 8.26989 44.8054 8.14986C45.1132 8.02983 45.4425 7.96982 45.7933 7.96982C46.3688 7.96982 46.8813 8.10677 47.3306 8.38068C47.783 8.65459 48.1385 9.02853 48.397 9.50249C48.6586 9.97337 48.7879 10.515 48.7848 11.1275C48.7879 11.7399 48.6494 12.2862 48.3693 12.7663C48.0923 13.2464 47.7076 13.625 47.2152 13.902C46.7259 14.1759 46.1642 14.3129 45.5302 14.3129Z" fill="white"/>
<defs>
<filter id="filter0_d_136_3043" x="0" y="8.20801" width="50" height="50" filterUnits="userSpaceOnUse" color-interpolation-filters="sRGB">
<feFlood flood-opacity="0" result="BackgroundImageFix"/>
<feColorMatrix in="SourceAlpha" type="matrix" values="0 0 0 0 0 0 0 0 0 0 0 0 0 0 0 0 0 0 127 0" result="hardAlpha"/>
<feOffset dy="1"/>
<feGaussianBlur stdDeviation="1"/>
<feComposite in2="hardAlpha" operator="out"/>
<feColorMatrix type="matrix" values="0 0 0 0 0.0627451 0 0 0 0 0.0941176 0 0 0 0 0.156863 0 0 0 0.04 0"/>
<feBlend mode="normal" in2="BackgroundImageFix" result="effect1_dropShadow_136_3043"/>
<feBlend mode="normal" in="SourceGraphic" in2="effect1_dropShadow_136_3043" result="shape"/>
</filter>
</defs>
</svg>
