<svg width="41" height="41" viewBox="0 0 41 41" fill="none" xmlns="http://www.w3.org/2000/svg">
<g clip-path="url(#clip0_136_3197)">
<path d="M16.4499 11.551C17.1333 10.3776 17.7393 9.18932 18.4796 8.09091C20.5968 4.95144 23.3269 2.51355 26.8837 1.1013C29.234 0.168899 31.6572 -0.150619 34.1178 0.605536C37.4426 1.62663 39.4222 3.97583 40.3387 7.24492C41.2666 10.5595 40.8675 13.8263 39.6701 16.9988C37.9622 21.5232 35.1207 25.1425 30.8942 27.5815C28.719 28.8368 26.3788 29.543 23.8363 29.3986C23.5032 29.3792 23.4497 29.518 23.4043 29.8022C22.9744 32.554 22.0386 35.0965 20.1681 37.2126C17.1014 40.6818 12.6327 41.4436 8.5677 39.207C5.55672 37.5503 3.51112 35.0089 2.04884 31.9615C0.517203 28.7698 -0.161632 25.3892 0.0316712 21.8586C0.20337 18.7294 1.04026 15.7991 2.97101 13.2657C4.50038 11.2588 6.47548 9.93979 9.00206 9.54636C11.3149 9.18705 13.4423 9.74876 15.4368 10.9097C15.7915 11.1155 16.1304 11.3486 16.4488 11.5499L16.4499 11.551ZM7.15318 11.6545L6.99398 11.6147C6.83479 11.7023 6.67219 11.783 6.51755 11.8774C4.76987 12.9371 3.57707 14.479 2.75156 16.312C1.47348 19.1501 1.15283 22.1304 1.52238 25.2016C1.9249 28.5423 3.04265 31.609 5.07233 34.3096C6.54711 36.2733 8.35506 37.8266 10.7168 38.643C11.7708 39.0069 12.8522 39.1592 13.9893 39.0319C14.0279 38.7351 14.0598 38.469 14.0984 38.2041C14.4054 36.0527 14.3497 33.9093 13.9324 31.7762C13.3764 28.9369 12.1449 26.4069 10.5087 24.0327C8.55178 21.1923 7.43517 18.0221 7.16455 14.5779C7.08836 13.6091 7.15318 12.629 7.15318 11.6545ZM37.3994 4.39655C37.33 4.44771 37.2823 4.47614 37.2425 4.51253C34.0132 7.4928 31.9551 11.1246 31.1659 15.4592C30.2676 20.3907 27.9094 24.4728 24.0706 27.6975C23.9773 27.776 23.8705 27.8385 23.7693 27.909L23.8318 28.0204C24.0092 28.0295 24.1877 28.0489 24.3651 28.0477C26.4084 28.0261 28.3085 27.4644 30.0755 26.466C33.9745 24.2613 36.6182 20.9671 38.2533 16.8441C39.4006 13.9514 39.8179 10.9677 39.0823 7.89305C38.7764 6.61612 38.2454 5.44038 37.3994 4.39882V4.39655ZM18.309 37.2205C18.7946 36.6577 19.2824 36.163 19.6894 35.607C21.3518 33.3385 22.0659 30.7346 22.2069 27.9738C22.4082 24.0395 21.5122 20.352 19.4779 16.9681C18.1385 14.7417 16.3999 12.9053 14.0416 11.7295C13.1285 11.2747 12.1677 10.962 11.1113 10.8745C11.0329 12.828 11.1784 14.7246 11.6253 16.5974C12.237 19.1547 13.4264 21.4277 14.8955 23.5927C17.0798 26.8106 18.2033 30.3924 18.3056 34.2846C18.3306 35.2284 18.309 36.1733 18.309 37.2194V37.2205ZM23.2849 22.7819C23.3485 22.7137 23.4554 22.625 23.5305 22.5147C24.1809 21.5539 24.8802 20.6203 25.4601 19.6174C26.6131 17.623 27.1964 15.4296 27.641 13.177C28.4631 9.01194 30.4644 5.46767 33.514 2.51696C33.6721 2.36346 33.8506 2.23269 34.02 2.09056L33.9563 1.95411C33.4458 1.85291 32.9398 1.72214 32.4247 1.65619C30.4234 1.39808 28.5279 1.82448 26.7313 2.6716C22.4628 4.68309 19.6121 8.0386 17.7268 12.2924C17.6268 12.5175 17.7246 12.6199 17.8656 12.7541C19.7451 14.5427 21.1278 16.6701 22.0602 19.0807C22.5264 20.286 22.8778 21.5357 23.286 22.7819H23.2849ZM9.71842 10.8404C9.47963 10.8745 9.28747 10.8983 9.0953 10.9302C8.94179 10.9552 8.77351 10.9586 8.64274 11.028C8.54837 11.078 8.44944 11.2213 8.44603 11.3259C8.38577 13.2157 8.48469 15.0919 8.90882 16.9453C9.50465 19.5526 10.669 21.8836 12.1745 24.0816C14.4873 27.4576 15.6346 31.2224 15.6562 35.3148C15.6619 36.4564 15.5448 37.5992 15.4834 38.7476C15.6335 38.6964 15.8097 38.6441 15.9803 38.5782C16.152 38.5122 16.3282 38.4486 16.4829 38.3519C16.575 38.2939 16.675 38.1802 16.691 38.079C17.0025 36.0914 17.056 34.0992 16.7512 32.1059C16.2953 29.1166 15.1968 26.383 13.4617 23.9031C10.8771 20.2087 9.6411 16.1005 9.71842 11.5942C9.72297 11.3566 9.71842 11.1189 9.71842 10.8404ZM36.3794 3.33224C36.1156 3.14235 35.8279 2.91835 35.5187 2.72959C35.4504 2.68752 35.2731 2.73528 35.2014 2.80123C33.2081 4.62965 31.5469 6.70708 30.3905 9.17227C29.5479 10.97 29.1033 12.8757 28.7019 14.8065C27.9412 18.469 26.2458 21.6619 23.709 24.4102C23.6112 24.516 23.5089 24.6729 23.5123 24.8036C23.5237 25.2653 23.5805 25.7247 23.6249 26.2443C23.7659 26.1283 23.875 26.0487 23.9739 25.9566C27.1054 23.0378 29.043 19.4651 29.806 15.2579C30.4166 11.8921 31.7299 8.8391 33.8631 6.16243C34.6386 5.18909 35.5164 4.29876 36.3806 3.33224H36.3794Z" fill="#D3AD7F"/>
<path d="M8.75299 34.4302C9.01679 34.5734 9.20782 34.6565 9.37724 34.7713C10.1016 35.2648 10.8134 35.7765 11.5411 36.2643C11.9914 36.5667 12.1358 36.9181 11.9129 37.2876C11.6935 37.6515 11.2807 37.7402 10.8429 37.4491C10.0197 36.901 9.21237 36.3268 8.41073 35.7469C8.14579 35.5559 8.02526 35.2534 8.19582 34.9601C8.31635 34.7531 8.55173 34.6144 8.75299 34.4302Z" fill="#D3AD7F"/>
<path d="M7.93314 33.6705C7.81944 33.8138 7.70459 34.0923 7.51129 34.1674C7.30207 34.2481 6.93365 34.2288 6.7847 34.0912C6.42538 33.7603 6.12747 33.3521 5.85457 32.9416C5.67605 32.6721 5.73177 32.3606 5.97851 32.1286C6.22298 31.8989 6.56979 31.8284 6.78925 32.0524C7.18836 32.4618 7.50901 32.9485 7.8581 33.4067C7.88994 33.4488 7.88993 33.5136 7.93314 33.6705Z" fill="#D3AD7F"/>
<path d="M22.4824 9.8135C22.4448 9.88627 22.3732 10.0511 22.2788 10.2024C21.8001 10.9676 21.3089 11.7261 20.8347 12.4947C20.5687 12.9268 20.2241 13.0746 19.8523 12.8791C19.4862 12.6869 19.3634 12.2753 19.6158 11.8557C20.1332 10.9983 20.6778 10.1558 21.2304 9.32001C21.4158 9.04029 21.6966 8.90952 22.0435 9.04825C22.3391 9.16536 22.4869 9.38368 22.4824 9.8135Z" fill="#D3AD7F"/>
<path d="M24.9566 7.08785C24.943 7.68481 23.6854 8.80711 23.2669 8.68999C23.0532 8.63086 22.8053 8.43415 22.7234 8.23743C22.6495 8.06232 22.7098 7.73371 22.8405 7.59044C23.1601 7.23794 23.5285 6.91615 23.9287 6.66031C24.0993 6.55115 24.4302 6.56593 24.6258 6.6569C24.8031 6.7399 24.8975 7.00257 24.9578 7.08785H24.9566Z" fill="#D3AD7F"/>
</g>
<defs>
<clipPath id="clip0_136_3197">
<rect width="40.8494" height="40.29" fill="white" transform="translate(0 0.183594)"/>
</clipPath>
</defs>
</svg>
