<svg width="32" height="41" viewBox="0 0 32 41" fill="none" xmlns="http://www.w3.org/2000/svg">
<g clip-path="url(#clip0_136_3225)">
<path d="M2.28216 12.9326C1.86529 12.9326 1.50153 12.9446 1.14042 12.93C0.460692 12.9021 0.0212561 12.4786 0.0119629 11.7962C-0.00529586 10.4221 -0.00396826 9.04675 0.0119629 7.67269C0.0199285 7.00623 0.430157 6.60795 1.09661 6.55485C1.19485 6.54689 1.29575 6.54821 1.39399 6.54689C2.0932 6.54069 2.5552 6.19728 2.78001 5.51667C3.25263 4.09083 3.72526 2.66498 4.20054 1.23914C4.49394 0.361598 4.73955 0.187682 5.69276 0.187682C12.036 0.187682 18.3793 0.187682 24.7226 0.187682C25.2696 0.187682 25.8152 0.179716 26.3622 0.190337C27.0698 0.203613 27.3791 0.433288 27.6048 1.10638C28.1611 2.76588 28.7279 4.42273 29.2563 6.09019C29.3758 6.46723 29.5484 6.59202 29.9215 6.55352C30.2003 6.52564 30.4844 6.53759 30.7645 6.55883C31.4296 6.60795 31.8093 6.96375 31.8199 7.63684C31.8425 9.0441 31.8438 10.4527 31.8173 11.8599C31.8053 12.5224 31.3659 12.8994 30.6941 12.9366C30.3211 12.9565 29.8219 12.8543 29.6108 13.0521C29.3917 13.2579 29.4449 13.7597 29.3878 14.1341C28.4359 20.2756 27.4827 26.4157 26.5348 32.5572C26.1869 34.8115 25.8537 37.0671 25.5098 39.3227C25.3797 40.1816 25.0279 40.4764 24.1411 40.4764C18.6594 40.4764 13.1764 40.4764 7.69478 40.4764C6.80131 40.4764 6.48667 40.1883 6.35125 39.3067C5.70604 35.1089 5.0502 30.9123 4.40366 26.7145C3.82483 22.9573 3.25396 19.1989 2.67911 15.4418C2.55432 14.6253 2.42156 13.8102 2.28349 12.9353L2.28216 12.9326ZM27.3897 12.9645H4.4581C5.7618 21.4359 7.06019 29.8728 8.35858 38.3163C8.51391 38.3283 8.62809 38.3442 8.74226 38.3442C13.511 38.3456 18.2797 38.3416 23.0485 38.3522C23.4096 38.3522 23.5516 38.242 23.5636 37.8782C23.5742 37.5676 23.6565 37.2583 23.7043 36.9476C24.1836 33.8291 24.6615 30.7092 25.1408 27.5893C25.62 24.4708 26.102 21.3509 26.5812 18.2324C26.8494 16.4866 27.1176 14.7395 27.3897 12.9618V12.9645ZM27.1534 6.52564C26.6994 5.15954 26.2772 3.85982 25.8218 2.57205C25.778 2.44991 25.5337 2.32512 25.3811 2.32379C19.0763 2.31184 12.7715 2.3145 6.46808 2.30653C6.19061 2.30653 6.06184 2.38884 5.97687 2.65303C5.59319 3.84655 5.18827 5.03475 4.79531 6.22561C4.76743 6.3119 4.77539 6.40881 4.7661 6.52564H27.1534ZM2.18657 10.7381H29.6705V8.70822H2.18657V10.7381Z" fill="#D3AD7F"/>
</g>
<defs>
<clipPath id="clip0_136_3225">
<rect width="31.8372" height="40.29" fill="white" transform="translate(0 0.183594)"/>
</clipPath>
</defs>
</svg>
