<svg width="266" height="45" viewBox="0 0 266 45" fill="none" xmlns="http://www.w3.org/2000/svg">
<g clip-path="url(#clip0_136_3123)">
<g clip-path="url(#clip1_136_3123)">
<path d="M73 22.1836V44.1836H133H193V22.1836V0.183594H133H73V22.1836ZM190.995 22.1836V42.2026L133.032 42.1817L75.058 42.1504L75.0264 22.1523L75.0053 2.16464H133H190.995V22.1836Z" fill="#979797"/>
<path d="M83.3428 10.8603V11.4234L83.7966 11.4964C84.0393 11.5276 84.3982 11.5902 84.5882 11.6215L84.9259 11.6736L84.9048 22.1731L84.8731 32.6622L84.1132 32.7457L83.3428 32.8395V33.4547V34.0698H87.3533H91.3639V33.4547V32.8395L90.604 32.7457L89.8335 32.6622L89.8019 27.8869L89.7808 23.122H95.0578H100.335V27.8556C100.335 31.8073 100.314 32.5997 100.187 32.6414C100.103 32.6727 99.7016 32.7352 99.29 32.7769L98.5407 32.8499V33.4547V34.0698H102.657H106.773V33.4547V32.8395L106.066 32.7665C105.686 32.7248 105.306 32.6727 105.221 32.6414C105.105 32.5997 105.084 30.7229 105.084 22.1314V11.6736L105.506 11.6111C105.739 11.5798 106.119 11.5172 106.351 11.4859L106.773 11.4234V10.8603V10.2973H102.657H98.5407V10.8603V11.4234L99.0473 11.4859C99.3217 11.5276 99.7227 11.5798 99.9444 11.6111L100.335 11.6736V16.1466V20.6196H95.0578H89.7808V16.1466V11.6736L90.2346 11.6006C91.48 11.413 91.3639 11.4859 91.3639 10.8603V10.2973H87.3533H83.3428V10.8603Z" fill="#979797"/>
<path d="M112.989 10.5893C110.794 11.7153 111.67 14.9893 114.161 14.9893C114.91 14.9893 115.491 14.7182 115.976 14.1656C116.768 13.248 116.768 12.0385 115.966 11.121C115.227 10.2556 114.034 10.0471 112.989 10.5893Z" fill="#979797"/>
<path d="M121.232 10.8082V11.3191L121.95 11.4025L122.657 11.4964L122.689 22.1523L122.71 32.7978L122.425 32.8603C122.256 32.8916 121.929 32.9438 121.686 32.975L121.232 33.048V33.5589V34.0698H124.979H128.726V33.5589V33.048L128.283 32.975C128.029 32.9438 127.702 32.8916 127.544 32.8603L127.248 32.7978V21.5475V10.2973H124.24H121.232V10.8082Z" fill="#979797"/>
<path d="M135.723 12.9458L133.58 13.5818V15.3752V17.179H131.944H130.309V17.9609V18.7429H131.881H133.464L133.496 25.0718C133.538 32.1202 133.538 32.0472 134.266 33.0482C135.375 34.5496 138.689 34.706 142.636 33.4339L143.29 33.215V32.6415V32.0681L142.974 32.141C142.794 32.1827 142.045 32.214 141.306 32.214C139.385 32.2245 138.773 31.9951 138.309 31.0671L138.066 30.5771L138.034 24.6548L138.003 18.7429H140.018H142.024V17.9609V17.179H140.018H138.013V14.7287C138.013 13.3837 137.981 12.2785 137.939 12.2889C137.886 12.2993 136.894 12.5913 135.723 12.9458Z" fill="#979797"/>
<path d="M151.945 16.7202C150.361 16.9287 148.388 17.7107 147.28 18.5761C145.982 19.5979 144.937 21.2245 144.451 22.9657C144.124 24.1335 144.04 26.7297 144.282 28.1164C144.631 30.0557 145.201 31.2548 146.351 32.4017C147.723 33.7676 149.612 34.4349 152.472 34.5496C155.491 34.6851 157.96 33.8927 159.755 32.2245C161.454 30.6501 162.245 28.8254 162.361 26.2501C162.435 24.6131 162.277 23.3723 161.823 22.0586C161.359 20.6927 160.916 19.9941 159.913 19.0036C159.227 18.3155 158.879 18.0756 158.066 17.669C156.683 17.0017 155.617 16.7619 153.792 16.7098C152.979 16.6889 152.145 16.6993 151.945 16.7202ZM153.844 18.0131C155.079 18.2425 155.923 18.9411 156.536 20.2548C157.201 21.6728 157.433 23.0491 157.433 25.6662C157.433 30.8899 156.145 33.2463 153.264 33.2567C152.219 33.2671 151.459 32.9752 150.815 32.3079C149.475 30.9524 148.821 27.8036 149.095 24.1126C149.369 20.4112 150.499 18.4093 152.504 18.0131C153.127 17.8984 153.222 17.8984 153.844 18.0131Z" fill="#979797"/>
<path d="M175.501 16.8765C174.182 17.0433 172.557 17.7627 171.174 18.7949C170.752 19.1077 170.351 19.3684 170.298 19.3684C170.246 19.3684 170.203 18.8784 170.203 18.2736V17.1788H167.195H164.188V17.7419V18.3049L164.694 18.3675C164.969 18.4092 165.317 18.4613 165.486 18.4926L165.771 18.5551V25.6765V32.7978L165.169 32.8603C164.188 32.975 164.188 32.975 164.188 33.5589V34.0698H167.987H171.786V33.5485C171.786 33.2566 171.755 33.0272 171.713 33.0167C171.66 33.0063 171.322 32.9542 170.942 32.8812L170.256 32.7665V26.7191V20.6717L170.784 20.3276C171.079 20.14 171.691 19.8376 172.156 19.6603C172.884 19.3684 173.127 19.3267 173.95 19.3163C174.995 19.3163 175.48 19.4935 176.029 20.067C176.863 20.9324 176.979 21.9021 176.937 28.0224L176.905 32.7665L176.219 32.8812C175.839 32.9542 175.501 33.0063 175.459 33.0167C175.406 33.0272 175.375 33.2566 175.375 33.5485V34.0698H179.174H182.974V33.5589C182.974 32.975 182.974 32.975 182.003 32.8708L181.401 32.7978L181.37 26.7295C181.338 20.7239 181.327 20.6613 181.085 19.9419C180.757 18.9513 180.441 18.4404 179.808 17.8774C179.185 17.3248 178.393 17.0016 177.338 16.866C176.494 16.7513 176.42 16.7513 175.501 16.8765Z" fill="#979797"/>
<path d="M110.361 17.6897V18.2006L110.868 18.2632C111.142 18.3049 111.491 18.357 111.659 18.3883L111.944 18.4509L111.923 25.6035L111.892 32.7665L111.206 32.8812C110.826 32.9542 110.488 33.0063 110.446 33.0167C110.393 33.0272 110.361 33.2566 110.361 33.5485V34.0698H114.171H117.971L117.939 33.5902C117.897 33.0167 117.823 32.9542 116.989 32.8708L116.377 32.8082V24.9883V17.1788H113.369H110.361V17.6897Z" fill="#979797"/>
</g>
</g>
<defs>
<clipPath id="clip0_136_3123">
<rect width="266" height="44" fill="white" transform="translate(0 0.183594)"/>
</clipPath>
<clipPath id="clip1_136_3123">
<rect width="120" height="44" fill="white" transform="translate(73 0.183594)"/>
</clipPath>
</defs>
</svg>
