<svg width="41" height="41" viewBox="0 0 41 41" fill="none" xmlns="http://www.w3.org/2000/svg">
<g clip-path="url(#clip0_136_3212)">
<path d="M0 21.1072C0.138677 20.4033 0.206966 19.6763 0.432842 19.0019C0.750119 18.0521 1.18611 17.1413 1.56748 16.2125C1.61895 16.0854 1.7051 15.9373 1.67884 15.8196C1.27856 14.0347 1.72611 12.3632 2.36592 10.7264C2.61701 10.0834 2.93744 9.46462 3.25682 8.85003C3.51001 8.36151 3.95126 8.21968 4.36939 8.44135C4.79803 8.66933 4.91044 9.12739 4.63309 9.62326C3.94495 10.8546 3.45853 12.1562 3.19063 13.5441C2.66324 16.2724 4.72659 19.0124 7.49173 19.3076C10.0678 19.5828 12.6375 19.9169 15.2093 20.2247C16.1192 20.334 17.0279 20.4496 17.9377 20.5483C19.4127 20.708 20.5295 19.6112 20.3604 18.1372C20.0715 15.6148 19.7552 13.0955 19.4495 10.5751C19.3192 9.49719 19.2415 8.40878 19.044 7.34349C18.5197 4.51321 15.8239 2.7892 13.0241 3.43531C11.754 3.72842 10.5489 4.18438 9.41641 4.82944C9.10333 5.00804 8.79761 5.0322 8.4961 4.81683C8.2366 4.63193 8.10318 4.35877 8.19458 4.06461C8.26182 3.84819 8.41415 3.59605 8.60116 3.48679C10.26 2.5276 12.025 1.85207 13.9539 1.72495C14.4823 1.69028 15.0202 1.809 15.5539 1.84682C15.6758 1.85523 15.8218 1.86048 15.9206 1.80375C17.4303 0.942265 19.044 0.410669 20.7743 0.238372C20.8237 0.233119 20.871 0.200551 20.9182 0.181641H23.0415C23.592 0.285649 24.1435 0.381252 24.6919 0.494715C25.9905 0.762615 27.0747 1.40242 27.9729 2.37632C28.0853 2.49818 28.265 2.59589 28.4278 2.62636C33.5452 3.59395 37.3358 6.41477 39.9496 10.8735C40.4329 11.6982 40.394 12.5376 39.832 13.3087C39.2468 14.1103 38.4305 14.3709 37.4702 14.1534C34.9362 13.5798 32.4043 13.6491 29.8766 14.1807C29.7421 14.2091 29.5793 14.3404 29.5236 14.4654C28.8586 15.972 27.7565 17.0015 26.2184 17.5794C24.8853 18.0805 23.5594 18.5995 22.2252 19.0985C22.0003 19.1826 21.8701 19.2929 21.7934 19.5345C21.4047 20.77 20.5841 21.5936 19.3487 21.9824C19.1091 22.058 18.9957 22.1851 18.9116 22.4121C18.4136 23.7463 17.8925 25.0721 17.3914 26.4064C16.8136 27.9455 15.7861 29.0486 14.2796 29.7136C14.1546 29.7693 14.0211 29.9311 13.9928 30.0656C13.4612 32.5943 13.3918 35.1252 13.9644 37.6603C14.1808 38.6174 13.9245 39.4368 13.1229 40.023C12.3213 40.6093 11.4661 40.6072 10.6193 40.105C6.37181 37.5888 3.59091 33.9864 2.55713 29.1169C2.44682 28.5958 2.25456 28.1955 1.87004 27.8205C0.703893 26.6858 0.276304 25.2129 0.0808952 23.6496C0.066187 23.5089 0.0283658 23.3702 0 23.2305V21.1062V21.1072ZM17.7108 2.60639C17.7423 2.72511 17.7423 2.74087 17.7486 2.74612C17.799 2.7871 17.8484 2.82912 17.902 2.86694C19.2793 3.83138 20.1818 5.13095 20.5505 6.76777C20.7165 7.50423 20.7754 8.26696 20.8678 9.01918C21.1242 11.1224 21.3721 13.2268 21.6232 15.3311C21.7093 16.0508 21.7976 16.7704 21.8932 17.5615C23.427 16.9469 24.9525 16.4531 26.3666 15.7366C27.7933 15.0138 28.431 13.6911 28.3396 12.0858C28.2282 10.1254 28.0444 8.16925 27.932 6.20886C27.8237 4.33356 26.5651 2.67363 24.7571 2.14939C23.198 1.69659 21.6106 1.61884 20.021 1.96028C19.2394 2.12838 18.4788 2.38787 17.7108 2.60534V2.60639ZM17.3452 22.0696C16.2683 21.9445 15.2556 21.83 14.2439 21.7092C12.1007 21.4539 9.96061 21.1766 7.81532 20.9465C6.31823 20.7868 4.94616 20.3456 3.81153 19.3317C3.33982 18.9104 2.93849 18.4093 2.49094 17.9282C2.44682 18.0248 2.38903 18.1383 2.34281 18.2549C1.50234 20.3624 1.35316 22.5203 1.89736 24.7212C2.35857 26.585 3.99538 27.9718 5.87278 28.1062C7.83107 28.247 9.79042 28.3846 11.7487 28.5202C13.6786 28.6546 15.1936 27.6913 15.8933 25.8863C16.1811 25.1436 16.4658 24.3987 16.7495 23.6538C16.9439 23.1433 17.134 22.6316 17.3462 22.0675L17.3452 22.0696ZM29.9985 12.5239C32.6197 12.0522 35.2178 11.9997 37.8106 12.6027C38.088 12.6668 38.3601 12.6511 38.5523 12.3832C38.7488 12.109 38.6952 11.8505 38.5345 11.5805C37.2517 9.41735 35.6023 7.59983 33.4706 6.24563C32.1627 5.41356 30.7528 4.81263 29.2504 4.44387C29.7442 7.11866 29.6948 9.82077 29.9995 12.525L29.9985 12.5239ZM4.26328 29.4373C4.29585 29.5697 4.32632 29.7073 4.36519 29.8429C5.48616 33.7374 7.89621 36.6149 11.3327 38.6856C11.6205 38.859 11.8968 38.9683 12.2015 38.7392C12.5093 38.5081 12.4568 38.2003 12.3906 37.883C12.0429 36.2357 11.8769 34.5726 12.0219 32.8896C12.1007 31.9829 12.2047 31.0794 12.2961 30.1843C9.63493 29.8775 6.93282 29.9385 4.26433 29.4384L4.26328 29.4373Z" fill="#D3AD7F"/>
<path d="M6.16484 7.11756C5.71834 7.12387 5.36009 6.77822 5.35694 6.34118C5.35484 5.91569 5.7299 5.54063 6.15539 5.54273C6.57983 5.54483 6.91916 5.88207 6.93072 6.31176C6.94228 6.76877 6.6166 7.11126 6.16484 7.11756Z" fill="#D3AD7F"/>
</g>
<defs>
<clipPath id="clip0_136_3212">
<rect width="40.2879" height="40.29" fill="white" transform="translate(0 0.183594)"/>
</clipPath>
</defs>
</svg>
