<svg width="42" height="35" viewBox="0 0 42 35" fill="none" xmlns="http://www.w3.org/2000/svg">
<g clip-path="url(#clip0_136_3260)">
<path d="M16.8822 19.419V34.3571H0.0869141V22.5615C0.0869141 16.1837 1.01999 11.5553 2.87058 8.70696C5.31212 4.88343 9.16883 2.00418 14.4407 0.0537109L18.2663 5.05371C15.0783 6.15278 12.7301 7.77817 11.2216 9.94535C9.71312 12.1125 8.87335 15.2704 8.70229 19.419H16.8822Z" fill="white"/>
<path d="M39.8515 19.4189V34.357H23.0718V22.5613C23.0718 16.1836 24.0049 11.5551 25.8554 8.69134C28.297 4.88329 32.1537 2.00403 37.4256 0.0380859L41.2512 5.03809C38.0632 6.13716 35.7149 7.76254 34.2065 9.92973C32.698 12.0969 31.8582 15.2548 31.6872 19.4034H39.8671L39.8515 19.4189Z" fill="white"/>
</g>
<defs>
<clipPath id="clip0_136_3260">
<rect width="41.1641" height="34.3034" fill="white" transform="translate(0.0869141 0.0537109)"/>
</clipPath>
</defs>
</svg>
