<svg width="49" height="41" viewBox="0 0 49 41" fill="none" xmlns="http://www.w3.org/2000/svg">
<g clip-path="url(#clip0_136_3272)">
<path d="M19.9223 22.7648V40.1836H0.337891V26.4291C0.337891 18.9923 1.42591 13.5951 3.58383 10.2738C6.43083 5.81536 10.928 2.45796 17.0753 0.183594L21.5362 6.01392C17.8188 7.29551 15.0806 9.19081 13.3216 11.7179C11.5627 14.245 10.5835 17.9273 10.384 22.7648H19.9223Z" fill="black"/>
<path d="M46.7059 22.7648V40.1836H27.1396V26.4291C27.1396 18.9922 28.2277 13.5951 30.3856 10.2558C33.2326 5.81535 37.7298 2.45795 43.8771 0.165527L48.338 5.99585C44.6206 7.27744 41.8824 9.17275 40.1234 11.6998C38.3644 14.2269 37.3852 17.9092 37.1857 22.7468H46.7241L46.7059 22.7648Z" fill="black"/>
</g>
<defs>
<clipPath id="clip0_136_3272">
<rect width="48" height="40" fill="white" transform="translate(0.337891 0.183594)"/>
</clipPath>
</defs>
</svg>
