<svg width="46" height="41" viewBox="0 0 46 41" fill="none" xmlns="http://www.w3.org/2000/svg">
<g clip-path="url(#clip0_136_3181)">
<path d="M45.9493 24.9178C45.5237 26.7328 44.4388 28.1006 42.9236 29.0908C41.8051 29.8221 40.6123 30.461 39.3955 31.0197C37.547 31.8672 35.5846 32.3935 33.597 32.8166C33.4831 32.8406 33.3501 32.8634 33.2697 32.9365C32.6464 33.5071 32.0326 34.0898 31.3625 34.7203C31.5735 34.7203 31.7317 34.7203 31.8887 34.7203C35.5522 34.7203 39.2157 34.7251 42.878 34.7155C43.3731 34.7143 43.7639 34.8378 43.9677 35.3209C44.1763 35.816 43.9485 36.1816 43.6069 36.5185C42.9463 37.1706 42.299 37.8348 41.6385 38.4869C40.297 39.8092 38.6894 40.4745 36.8014 40.4745C26.9485 40.4697 17.0945 40.4697 7.24169 40.4745C5.38597 40.4745 3.79758 39.8319 2.46813 38.5504C1.75725 37.8659 1.07154 37.1538 0.371448 36.4562C0.0477761 36.1337 -0.105668 35.7657 0.0789446 35.3209C0.269552 34.8594 0.638778 34.7155 1.12189 34.7167C4.78538 34.7251 8.44887 34.7215 12.1112 34.7215H12.7201C12.5152 34.5429 12.3905 34.4326 12.2634 34.3247C8.7174 31.2966 6.54759 27.488 5.9446 22.8535C5.74321 21.3035 5.76359 19.7175 5.76838 18.1483C5.77198 16.892 6.92641 15.7232 8.17554 15.5733C8.39732 15.5469 8.62269 15.5337 8.84687 15.5325C17.6232 15.5301 26.4007 15.5289 35.177 15.5325C36.8877 15.5325 38.0385 16.4808 38.2771 18.0896C38.3286 18.442 38.3022 18.8064 38.3082 19.1661C38.3118 19.389 38.3082 19.612 38.3082 19.8242C39.109 19.6815 39.8774 19.4682 40.6543 19.4262C41.4335 19.3842 42.251 19.401 43.0003 19.5916C44.6678 20.016 45.5369 21.2256 45.8522 22.8763C45.8738 22.9902 45.9157 23.0993 45.9493 23.2108V24.919V24.9178ZM22.0383 17.4542C17.6424 17.4542 13.2464 17.4542 8.85046 17.4542C8.07245 17.4542 7.66247 17.7767 7.68045 18.4899C7.71761 19.9693 7.67565 21.4689 7.90822 22.9207C8.73658 28.0706 11.4974 31.9247 15.9868 34.5429C16.1691 34.6496 16.4052 34.7107 16.6162 34.7119C20.2197 34.7215 23.8233 34.7215 27.4268 34.7119C27.6246 34.7119 27.844 34.6568 28.0155 34.5597C31.7665 32.4258 34.3043 29.3006 35.6349 25.1864C36.3182 23.0741 36.4082 20.8995 36.3626 18.7069C36.3434 17.7587 36.0497 17.4518 35.0907 17.4518C30.7391 17.4518 26.3887 17.4518 22.0371 17.4518L22.0383 17.4542ZM3.36002 36.6683C4.47729 38.0002 5.8463 38.5552 7.50183 38.5528C17.176 38.5396 26.8514 38.5468 36.5256 38.5444C36.8541 38.5444 37.185 38.5372 37.5098 38.4941C38.7889 38.3251 39.8127 37.7053 40.6854 36.6671H3.36002V36.6683ZM35.2609 30.4706C36.2823 30.1194 37.1898 29.8425 38.0709 29.4984C39.7312 28.8511 41.334 28.0934 42.6622 26.8611C43.6524 25.9428 44.1607 24.8519 43.9917 23.4613C43.8478 22.2745 43.2976 21.5588 42.1432 21.3706C40.8401 21.1572 39.5957 21.4905 38.3838 21.9401C38.2926 21.9736 38.2255 22.1666 38.2099 22.2925C37.8946 24.9394 37.0891 27.4185 35.7201 29.7094C35.593 29.9228 35.4647 30.135 35.2609 30.473V30.4706Z" fill="#D3AD7F"/>
<path d="M21.0532 9.9575C21.0724 8.477 21.4416 7.35134 22.1861 6.34316C23.205 4.96216 23.2266 3.2455 22.2676 1.82494C21.884 1.25671 21.9439 0.705273 22.4258 0.366017C22.903 0.0303566 23.4496 0.165819 23.8524 0.717261C25.225 2.59935 25.2969 5.41291 23.874 7.26863C22.8046 8.66281 22.704 10.7691 23.7469 12.1021C24.0969 12.5505 23.9627 13.1307 23.5227 13.446C23.1163 13.7373 22.5445 13.6594 22.2053 13.2302C21.3937 12.2064 21.0592 11.0172 21.0532 9.9575Z" fill="#D3AD7F"/>
<path d="M30.6435 3.99951C30.6291 5.29779 30.2767 6.43065 29.531 7.44362C28.4905 8.85699 28.4653 10.5581 29.4399 12.0074C29.8103 12.5588 29.7552 13.0863 29.2912 13.434C28.8345 13.7756 28.2591 13.6449 27.8563 13.1079C26.4393 11.2198 26.4549 8.38227 27.9114 6.39229C28.7566 5.23786 28.9268 3.99112 28.4569 2.65567C28.349 2.34998 28.168 2.06707 27.9942 1.79135C27.6513 1.2471 27.7148 0.688463 28.18 0.367188C28.6523 0.0399193 29.1906 0.158599 29.5802 0.688463C30.3162 1.68705 30.6387 2.8199 30.6447 4.00071L30.6435 3.99951Z" fill="#D3AD7F"/>
<path d="M19.1568 3.97869C19.1436 5.30096 18.7888 6.43261 18.0444 7.44558C17.0038 8.86135 16.9786 10.5588 17.9545 12.0082C18.3249 12.5572 18.2685 13.0907 17.8046 13.4347C17.3587 13.7656 16.788 13.6469 16.3972 13.1422C14.9743 11.3045 14.9467 8.4154 16.3757 6.46618C17.2424 5.28417 17.4534 4.02665 16.9702 2.65523C16.8624 2.34954 16.6813 2.06663 16.5075 1.79091C16.1659 1.24906 16.2318 0.685629 16.6945 0.366752C17.1692 0.0394835 17.7039 0.159362 18.0935 0.690424C18.8284 1.69021 19.152 2.82187 19.1568 3.97869Z" fill="#D3AD7F"/>
</g>
<defs>
<clipPath id="clip0_136_3181">
<rect width="45.9495" height="40.29" fill="white" transform="translate(0 0.183594)"/>
</clipPath>
</defs>
</svg>
