<svg width="266" height="45" viewBox="0 0 266 45" fill="none" xmlns="http://www.w3.org/2000/svg">
<path d="M62.4613 0.746408C62.5264 0.378538 62.6557 0.183548 62.8295 0.183548C63.0029 0.183548 63.1322 0.292185 63.4129 0.854326L69.3182 13.0599L75.2028 0.702333C75.3757 0.356972 75.4835 0.183548 75.6779 0.183548C75.8733 0.183548 76.003 0.399607 76.0682 0.854326L78.0365 14.2294C78.2305 15.592 78.4465 16.2198 79.0963 16.4148C79.7232 16.6092 80.1561 16.6313 80.4372 16.6313C80.6321 16.6313 80.7834 16.6524 80.7834 16.7826C80.7834 16.9557 80.5239 17.0208 80.2212 17.0208C79.681 17.0208 76.6955 16.9557 75.8297 16.8909C75.3321 16.8479 75.2028 16.7826 75.2028 16.6524C75.2028 16.545 75.289 16.4793 75.4404 16.4148C75.5706 16.3716 75.6357 16.0902 75.549 15.4837L74.2508 5.96213H74.1641L69.4484 15.7881C68.9504 16.8038 68.843 16.9997 68.6477 16.9997C68.4541 16.9997 68.2372 16.566 67.8906 15.9169C67.3714 14.9213 65.6632 11.6106 65.4036 11.0044C65.2087 10.5502 63.9109 7.82224 63.1537 6.19993H63.0675L61.943 14.8138C61.899 15.2029 61.8779 15.4837 61.8779 15.8302C61.8779 16.2422 62.1586 16.4358 62.5264 16.523C62.9166 16.6092 63.2193 16.6313 63.4353 16.6313C63.6087 16.6313 63.7595 16.6743 63.7595 16.7826C63.7595 16.9772 63.5642 17.0208 63.2404 17.0208C62.3319 17.0208 61.3588 16.9557 60.9699 16.9557C60.5581 16.9557 59.5194 17.0208 58.8274 17.0208C58.6109 17.0208 58.4385 16.9772 58.4385 16.7826C58.4385 16.6743 58.5678 16.6313 58.7847 16.6313C58.9581 16.6313 59.1089 16.6313 59.4332 16.566C60.0381 16.4358 60.2119 15.592 60.3201 14.8562L62.4613 0.746408Z" fill="#979797"/>
<path d="M93.2212 11.3724C93.3074 11.3724 93.3294 11.3289 93.3074 11.2637L91.5116 6.58986C91.4905 6.52458 91.4689 6.41631 91.4254 6.41631C91.3607 6.41631 91.3396 6.52458 91.3171 6.58986L89.4786 11.2426C89.4346 11.3289 89.4786 11.3724 89.5437 11.3724H93.2212ZM89.154 12.3891C89.0457 12.3891 89.0246 12.4107 88.9806 12.519L87.9648 14.9869C87.7699 15.4411 87.6837 15.8953 87.6837 16.1115C87.6837 16.4358 87.8557 16.6313 88.4404 16.6313H88.722C88.9595 16.6313 89.0026 16.7175 89.0026 16.8258C89.0026 16.9772 88.8944 17.0208 88.6999 17.0208C88.0726 17.0208 87.1852 16.9557 86.5799 16.9557C86.3854 16.9557 85.3687 17.0208 84.374 17.0208C84.1356 17.0208 84.0273 16.9772 84.0273 16.8258C84.0273 16.7175 84.0925 16.6313 84.2442 16.6313C84.4162 16.6313 84.6331 16.6092 84.8065 16.6092C85.6714 16.4793 85.9965 15.9169 86.3854 14.9869L91.3607 3.40751C91.5771 2.88823 91.7285 2.67253 91.9229 2.67253C92.2036 2.67253 92.2907 2.84591 92.4852 3.2566C92.9392 4.27377 96.12 11.805 97.3311 14.5975C98.0667 16.2633 98.6069 16.5006 98.9532 16.566C99.2338 16.6092 99.4507 16.6313 99.6667 16.6313C99.8401 16.6313 99.9263 16.6964 99.9263 16.8258C99.9263 16.9772 99.8185 17.0208 99.1045 17.0208C98.4336 17.0208 97.0491 17.0208 95.4491 16.9772C95.1028 16.9557 94.8864 16.9557 94.8864 16.8258C94.8864 16.7175 94.9299 16.6524 95.1248 16.6313C95.2542 16.6092 95.3844 16.4358 95.2982 16.2198L93.8266 12.519C93.7834 12.4107 93.7179 12.3891 93.6317 12.3891H89.154Z" fill="#979797"/>
<path d="M108.748 9.85754C108.748 10.052 108.79 10.1171 108.92 10.1822C109.331 10.3117 109.893 10.3553 110.37 10.3553C111.127 10.3553 111.386 10.2902 111.71 10.052C112.295 9.64044 112.944 8.84032 112.944 7.3252C112.944 4.72799 111.17 4.05758 110.045 4.05758C109.57 4.05758 109.116 4.07882 108.92 4.12286C108.79 4.16585 108.748 4.23028 108.748 4.38155V9.85754ZM106.324 8.42823C106.324 5.63725 106.324 5.11761 106.303 4.53301C106.26 3.90576 106.086 3.71077 105.481 3.53794C105.329 3.49476 105.006 3.47261 104.724 3.47261C104.529 3.47261 104.4 3.40751 104.4 3.27816C104.4 3.14832 104.552 3.10478 104.832 3.10478C105.828 3.10478 107.039 3.14832 107.428 3.14832C108.077 3.14832 109.808 3.10478 110.391 3.10478C111.603 3.10478 112.987 3.21427 114.004 3.88469C114.544 4.2522 115.345 5.18307 115.345 6.41631C115.345 7.77997 114.566 8.99159 112.706 10.4851C114.393 12.5625 115.734 14.2294 116.881 15.376C117.94 16.4358 118.611 16.523 118.914 16.5873C119.108 16.6313 119.218 16.6313 119.369 16.6313C119.521 16.6313 119.606 16.7386 119.606 16.8258C119.606 16.9772 119.476 17.0208 119.239 17.0208H117.422C116.361 17.0208 115.842 16.9134 115.345 16.6524C114.523 16.2422 113.809 15.376 112.749 13.9478C111.991 12.9521 111.192 11.7178 110.953 11.437C110.846 11.3289 110.737 11.3077 110.607 11.3077L108.899 11.2637C108.812 11.2637 108.748 11.3077 108.748 11.4146V11.6757C108.748 13.3848 108.769 14.8138 108.855 15.592C108.92 16.1326 109.007 16.4793 109.591 16.566C109.872 16.6092 110.283 16.6313 110.521 16.6313C110.673 16.6313 110.76 16.7386 110.76 16.8258C110.76 16.9557 110.607 17.0208 110.37 17.0208C109.267 17.0208 107.687 16.9557 107.406 16.9557C107.039 16.9557 105.828 17.0208 105.069 17.0208C104.832 17.0208 104.703 16.9557 104.703 16.8258C104.703 16.7386 104.767 16.6313 105.006 16.6313C105.286 16.6313 105.502 16.6092 105.676 16.566C106.065 16.4793 106.173 16.1326 106.238 15.592C106.324 14.8138 106.324 13.3628 106.324 11.6757V8.42823Z" fill="#979797"/>
<path d="M125.491 8.42823C125.491 5.63725 125.491 5.11761 125.47 4.53301C125.427 3.90576 125.232 3.6897 124.821 3.55896C124.604 3.49476 124.366 3.47261 124.128 3.47261C123.934 3.47261 123.825 3.42997 123.825 3.2566C123.825 3.14832 123.977 3.10478 124.279 3.10478C124.994 3.10478 126.292 3.14832 126.832 3.14832C127.309 3.14832 128.541 3.10478 129.277 3.10478C129.514 3.10478 129.666 3.14832 129.666 3.2566C129.666 3.42997 129.559 3.47261 129.363 3.47261C129.168 3.47261 129.017 3.49476 128.8 3.53794C128.283 3.6246 128.131 3.88469 128.087 4.53301C128.044 5.11761 128.044 5.63725 128.044 8.42823V11.6757C128.044 13.4499 128.044 14.9213 128.131 15.7008C128.195 16.1982 128.325 16.4793 128.888 16.566C129.147 16.6092 129.58 16.6313 129.861 16.6313C130.078 16.6313 130.164 16.7386 130.164 16.8258C130.164 16.9557 130.013 17.0208 129.797 17.0208C128.541 17.0208 127.244 16.9557 126.725 16.9557C126.292 16.9557 124.994 17.0208 124.237 17.0208C123.999 17.0208 123.87 16.9557 123.87 16.8258C123.87 16.7386 123.934 16.6313 124.172 16.6313C124.453 16.6313 124.669 16.6092 124.843 16.566C125.232 16.4793 125.339 16.2198 125.404 15.6783C125.491 14.9213 125.491 13.4499 125.491 11.6757V8.42823Z" fill="#979797"/>
<path d="M150.022 15.7881C150.022 16.2844 150.022 16.306 149.784 16.4359C148.507 17.0645 146.625 17.2581 145.133 17.2581C140.461 17.2581 136.329 15.1379 136.329 10.052C136.329 7.10977 137.908 5.05237 139.66 4.03654C141.478 2.97493 143.186 2.84594 144.787 2.84594C146.106 2.84594 147.772 3.06254 148.161 3.14836C148.55 3.21431 149.221 3.32138 149.675 3.34335C149.892 3.36545 149.936 3.43001 149.936 3.559C149.936 3.77591 149.805 4.27381 149.805 6.5899C149.805 6.8707 149.697 7.00005 149.546 7.00005C149.416 7.00005 149.372 6.9137 149.351 6.76279C149.307 6.35124 149.2 5.76718 148.702 5.24821C148.14 4.66325 146.713 3.8407 144.57 3.8407C143.532 3.8407 142.213 3.86177 140.893 4.92302C139.834 5.78838 139.141 7.15186 139.141 9.40196C139.141 13.3628 141.693 16.2423 145.76 16.2423C146.258 16.2423 146.647 16.2423 147.102 16.0464C147.383 15.9169 147.47 15.7225 147.47 15.3976V13.7096C147.47 12.8012 147.47 12.1083 147.448 11.5453C147.425 10.9177 147.231 10.7233 146.625 10.5503C146.474 10.5062 146.149 10.4851 145.891 10.4851C145.717 10.4851 145.587 10.3988 145.587 10.2902C145.587 10.1384 145.739 10.1171 145.998 10.1171C146.994 10.1171 148.356 10.1603 148.918 10.1603C149.524 10.1603 150.519 10.1171 151.147 10.1171C151.405 10.1171 151.536 10.1384 151.536 10.2902C151.536 10.3988 151.428 10.4851 151.298 10.4851C151.147 10.4851 150.995 10.5062 150.779 10.5503C150.26 10.6369 150.065 10.8958 150.043 11.5453C150.022 12.1083 150.022 12.8434 150.022 13.7528V15.7881Z" fill="#979797"/>
<path d="M160.852 14.5103C160.896 15.9394 161.134 16.3717 161.501 16.5006C161.825 16.6093 162.193 16.6314 162.496 16.6314C162.712 16.6314 162.821 16.7176 162.821 16.8258C162.821 16.9773 162.647 17.0208 162.388 17.0208C161.155 17.0208 160.268 16.9557 159.922 16.9557C159.749 16.9557 158.841 17.0208 157.867 17.0208C157.608 17.0208 157.434 16.9997 157.434 16.8258C157.434 16.7176 157.564 16.6314 157.738 16.6314C157.997 16.6314 158.343 16.6093 158.603 16.545C159.101 16.4148 159.165 15.9169 159.186 14.3156L159.359 3.40757C159.359 3.0406 159.489 2.78087 159.684 2.78087C159.922 2.78087 160.182 3.06257 160.507 3.3865C160.744 3.62467 163.599 6.5459 166.368 9.25107C167.666 10.5287 170.197 13.1251 170.478 13.3848H170.565L170.37 5.20434C170.348 4.07889 170.176 3.75456 169.722 3.581C169.44 3.47268 168.986 3.47268 168.726 3.47268C168.488 3.47268 168.423 3.3865 168.423 3.27823C168.423 3.12677 168.618 3.10485 168.899 3.10485C169.894 3.10485 170.911 3.14838 171.322 3.14838C171.538 3.14838 172.252 3.10485 173.182 3.10485C173.442 3.10485 173.615 3.12677 173.615 3.27823C173.615 3.3865 173.505 3.47268 173.29 3.47268C173.096 3.47268 172.944 3.47268 172.707 3.538C172.187 3.68977 172.036 4.01411 172.014 5.0524L171.798 16.6525C171.798 17.0645 171.646 17.2371 171.495 17.2371C171.17 17.2371 170.911 17.0424 170.716 16.848C169.526 15.7436 167.147 13.472 165.157 11.5454C163.08 9.5547 161.068 7.32527 160.701 7.00008H160.636L160.852 14.5103Z" fill="#979797"/>
<path d="M184.234 12.2377C184.234 11.2426 184.061 10.853 183.802 10.3117C183.672 10.0309 181.076 5.98423 180.405 5.01019C179.93 4.33941 179.54 3.90576 179.174 3.71077C178.935 3.58093 178.61 3.47261 178.372 3.47261C178.221 3.47261 178.091 3.40751 178.091 3.27816C178.091 3.14832 178.221 3.10478 178.459 3.10478C178.783 3.10478 180.211 3.14832 180.838 3.14832C181.25 3.14832 182.136 3.10478 183.002 3.10478C183.174 3.10478 183.283 3.14832 183.283 3.27816C183.283 3.42997 183.153 3.42997 182.85 3.51669C182.699 3.55896 182.59 3.64621 182.59 3.79803C182.59 3.94948 182.677 4.16585 182.829 4.42558C183.174 4.98862 185.662 9.29486 185.987 9.81436C186.225 9.38067 188.539 5.4428 188.82 4.87981C189.015 4.46876 189.101 4.14393 189.101 3.90576C189.101 3.73324 189.015 3.55896 188.691 3.49476C188.517 3.45158 188.344 3.42997 188.344 3.27816C188.344 3.14832 188.453 3.10478 188.668 3.10478C189.297 3.10478 189.967 3.14832 190.529 3.14832C190.941 3.14832 192.195 3.10478 192.563 3.10478C192.779 3.10478 192.908 3.14832 192.908 3.2566C192.908 3.38644 192.757 3.47261 192.54 3.47261C192.347 3.47261 191.999 3.55896 191.718 3.6897C191.308 3.88469 191.135 4.05757 190.724 4.55457C190.097 5.29099 187.371 9.66291 187.026 10.4411C186.744 11.1123 186.787 11.6757 186.787 12.2817V13.7528C186.787 14.056 186.787 14.8138 186.83 15.592C186.873 16.1326 187.047 16.4793 187.609 16.566C187.89 16.6092 188.302 16.6313 188.561 16.6313C188.777 16.6313 188.885 16.7386 188.885 16.8258C188.885 16.9557 188.734 17.0208 188.474 17.0208C187.284 17.0208 186.008 16.9557 185.489 16.9557C185.014 16.9557 183.737 17.0208 183.023 17.0208C182.764 17.0208 182.613 16.9772 182.613 16.8258C182.613 16.7386 182.699 16.6313 182.915 16.6313C183.174 16.6313 183.411 16.6092 183.586 16.566C183.975 16.4793 184.126 16.1326 184.169 15.592C184.234 14.8138 184.234 14.056 184.234 13.7528V12.2377Z" fill="#979797"/>
<path d="M42.6438 33.5931C42.6438 28.7454 39.8537 25.7375 36.3065 25.7375C33.8182 25.7375 30.9845 27.123 30.9845 32.5112C30.9845 37.013 33.4724 40.5831 37.6259 40.5831C39.1393 40.5831 42.6438 39.8481 42.6438 33.5931ZM28 33.1815C28 29.4818 30.4439 24.6987 36.9339 24.6987C42.32 24.6987 45.6724 27.837 45.6724 32.792C45.6724 37.748 42.2109 41.6663 36.717 41.6663C30.5085 41.6663 28 37.013 28 33.1815Z" fill="#979797"/>
<path d="M53.4368 32.7709C53.4368 29.979 53.4368 29.4604 53.4144 28.8754C53.3713 28.2473 53.1988 28.0529 52.5926 27.8795C52.4413 27.8368 52.1166 27.8156 51.8359 27.8156C51.641 27.8156 51.5112 27.7505 51.5112 27.6197C51.5112 27.4899 51.6621 27.4477 51.9441 27.4477C52.9384 27.4477 54.1504 27.4899 54.6916 27.4899C55.4698 27.4899 56.9836 27.4477 57.8494 27.4477C60.2291 27.4477 61.0935 28.2259 61.3962 28.4855C61.8085 28.8754 62.3483 29.6982 62.3483 30.6929C62.3483 33.2905 60.2717 35.1515 57.5679 35.1515C57.4816 35.1515 57.0928 35.1515 57.0052 35.129C56.897 35.129 56.7681 35.0648 56.7681 34.9354C56.7681 34.784 56.9836 34.6968 57.3954 34.6968C58.4548 34.6968 59.9475 33.5929 59.9475 31.7108C59.9475 31.1043 59.8824 29.8932 58.8226 28.9834C58.1301 28.3772 57.3514 28.291 56.9194 28.291C56.6387 28.291 56.2705 28.3121 56.0972 28.3772C55.9889 28.4212 55.9463 28.5292 55.9463 28.7241V36.0169C55.9463 37.7057 55.9463 39.155 56.032 39.9562C56.0972 40.4755 56.2054 40.8214 56.7681 40.9081C57.0487 40.9508 57.4605 40.9732 57.7412 40.9732C57.9568 40.9732 58.0439 41.0815 58.0439 41.1679C58.0439 41.2977 57.8926 41.3623 57.6977 41.3623C56.4218 41.3623 55.0809 41.2977 54.5829 41.2977C54.1504 41.2977 52.9384 41.3623 52.1812 41.3623C51.9441 41.3623 51.8135 41.2977 51.8135 41.1679C51.8135 41.0815 51.879 40.9732 52.1166 40.9732C52.3981 40.9732 52.615 40.9508 52.787 40.9081C53.1768 40.8214 53.2851 40.4755 53.3502 39.9341C53.4369 39.155 53.4368 37.7057 53.4368 36.0169V32.7709Z" fill="#979797"/>
<path d="M70.6504 32.771C70.6504 29.9791 70.6504 29.4605 70.6293 28.8756C70.5857 28.2474 70.4132 28.053 69.8074 27.8796C69.6561 27.8369 69.331 27.8157 69.0503 27.8157C68.8554 27.8157 68.7261 27.7506 68.7261 27.6198C68.7261 27.49 68.877 27.4479 69.1576 27.4479C70.1537 27.4479 71.3653 27.49 71.906 27.49C72.5113 27.49 76.729 27.5116 77.0968 27.49C77.4435 27.4689 77.7457 27.4038 77.8975 27.3826C78.0062 27.3601 78.1139 27.2959 78.2006 27.2959C78.3084 27.2959 78.3304 27.3826 78.3304 27.4689C78.3304 27.5988 78.2217 27.8157 78.1795 28.659C78.1571 28.854 78.1139 29.6537 78.0699 29.8708C78.0488 29.957 78.0062 30.1736 77.8544 30.1736C77.7246 30.1736 77.7021 30.0878 77.7021 29.9359C77.7021 29.8057 77.681 29.4818 77.5737 29.2647C77.4215 28.9412 77.2701 28.6802 76.3185 28.5939C75.9934 28.5507 73.722 28.5081 73.3331 28.5081C73.2469 28.5081 73.2029 28.5728 73.2029 28.6802V33.2255C73.2029 33.3335 73.2249 33.4205 73.3331 33.4205C73.766 33.4205 76.2323 33.4205 76.6643 33.377C77.1183 33.3335 77.399 33.2906 77.5737 33.0953C77.7246 32.9654 77.7893 32.8577 77.8764 32.8577C77.9626 32.8577 78.0277 32.9438 78.0277 33.0522C78.0277 33.1599 77.9837 33.4632 77.8764 34.3942C77.8324 34.762 77.7893 35.4972 77.7893 35.628C77.7893 35.7789 77.7668 36.0384 77.5948 36.0384C77.4646 36.0384 77.4215 35.9747 77.4215 35.8875C77.399 35.6931 77.399 35.4549 77.3568 35.2164C77.2477 34.8484 77.0101 34.5676 76.2965 34.5025C75.9508 34.4588 73.7871 34.4161 73.312 34.4161C73.2249 34.4161 73.2029 34.5025 73.2029 34.6108V36.0822C73.2029 36.7098 73.1818 38.267 73.2029 38.8087C73.2469 40.0636 73.8307 40.3458 75.7779 40.3458C76.275 40.3458 77.0757 40.3247 77.5737 40.1076C78.0488 39.8907 78.2653 39.502 78.3951 38.745C78.4377 38.5492 78.4817 38.4628 78.6111 38.4628C78.7624 38.4628 78.7844 38.7005 78.7844 38.896C78.7844 39.3066 78.6335 40.5618 78.524 40.9298C78.3951 41.4053 78.2217 41.4053 77.5086 41.4053C76.081 41.4053 74.9332 41.384 74.004 41.34C73.0735 41.3189 72.36 41.2979 71.7977 41.2979C71.5808 41.2979 71.1699 41.3189 70.7155 41.3189C70.2615 41.34 69.7859 41.3625 69.3956 41.3625C69.1576 41.3625 69.0287 41.2979 69.0287 41.168C69.0287 41.0817 69.0925 40.9734 69.331 40.9734C69.6125 40.9734 69.8286 40.9509 70.0019 40.9083C70.3921 40.8216 70.4995 40.4756 70.5641 39.9342C70.6504 39.1552 70.6504 37.7059 70.6504 36.0171V32.771Z" fill="#979797"/>
<path d="M89.43 34.1991C89.43 34.3941 89.474 34.4586 89.6033 34.5234C90.0142 34.6536 90.5764 34.6968 91.0529 34.6968C91.8096 34.6968 92.0692 34.6325 92.3943 34.3941C92.9785 33.9825 93.6265 33.1813 93.6265 31.6673C93.6265 29.0701 91.8536 28.3993 90.7282 28.3993C90.2518 28.3993 89.7977 28.4212 89.6033 28.4635C89.474 28.5079 89.43 28.5727 89.43 28.7241V34.1991ZM87.0076 32.7709C87.0076 29.979 87.0077 29.4604 86.9856 28.8754C86.943 28.2473 86.7701 28.0529 86.1638 27.8795C86.0125 27.8368 85.6874 27.8156 85.4067 27.8156C85.2123 27.8156 85.082 27.7505 85.082 27.6197C85.082 27.4899 85.2334 27.4477 85.5149 27.4477C86.5101 27.4477 87.7212 27.4899 88.1106 27.4899C88.759 27.4899 90.4902 27.4477 91.074 27.4477C92.2861 27.4477 93.6701 27.5546 94.6868 28.2259C95.2279 28.5937 96.0277 29.5248 96.0277 30.758C96.0277 32.1215 95.249 33.3333 93.3885 34.8263C95.0766 36.9042 96.4166 38.5701 97.564 39.7184C98.6234 40.7788 99.2938 40.8646 99.5969 40.9297C99.7918 40.9732 99.8996 40.9732 100.051 40.9732C100.202 40.9732 100.289 41.0815 100.289 41.1679C100.289 41.3188 100.16 41.3623 99.9216 41.3623H98.1042C97.0444 41.3623 96.5253 41.254 96.0277 40.9948C95.2059 40.5829 94.4923 39.7184 93.4325 38.2893C92.675 37.2931 91.8747 36.0608 91.6371 35.7787C91.528 35.6705 91.4207 35.6489 91.2905 35.6489L89.5808 35.6066C89.4951 35.6066 89.43 35.6489 89.43 35.7575V36.0169C89.43 37.7268 89.452 39.155 89.5386 39.9341C89.6033 40.4755 89.6904 40.8214 90.2742 40.9081C90.5549 40.9508 90.9667 40.9732 91.2042 40.9732C91.3556 40.9732 91.4418 41.0815 91.4418 41.1679C91.4418 41.2977 91.2905 41.3623 91.0529 41.3623C89.9491 41.3623 88.3701 41.2977 88.0886 41.2977C87.7212 41.2977 86.5101 41.3623 85.7529 41.3623C85.5149 41.3623 85.3852 41.2977 85.3852 41.1679C85.3852 41.0815 85.4503 40.9732 85.6874 40.9732C85.9689 40.9732 86.1858 40.9508 86.3583 40.9081C86.7485 40.8214 86.8563 40.4755 86.9219 39.9341C87.0077 39.155 87.0076 37.7057 87.0076 36.0169V32.7709Z" fill="#979797"/>
<path d="M111.055 35.714C111.141 35.714 111.163 35.6705 111.141 35.6066L109.346 30.9309C109.324 30.8663 109.302 30.758 109.26 30.758C109.195 30.758 109.172 30.8663 109.151 30.9309L107.313 35.5841C107.27 35.6705 107.313 35.714 107.377 35.714H111.055ZM106.988 36.7312C106.881 36.7312 106.858 36.7523 106.816 36.8611L105.798 39.3284C105.604 39.7826 105.517 40.237 105.517 40.4536C105.517 40.7788 105.691 40.9732 106.274 40.9732H106.555C106.794 40.9732 106.837 41.0596 106.837 41.1679C106.837 41.3188 106.729 41.3623 106.533 41.3623C105.907 41.3623 105.02 41.2977 104.414 41.2977C104.219 41.2977 103.202 41.3623 102.207 41.3623C101.97 41.3623 101.861 41.3188 101.861 41.1679C101.861 41.0596 101.926 40.9732 102.078 40.9732C102.252 40.9732 102.468 40.9508 102.64 40.9508C103.505 40.8214 103.831 40.2584 104.219 39.3284L109.195 27.7505C109.411 27.2306 109.562 27.0146 109.757 27.0146C110.038 27.0146 110.125 27.1866 110.32 27.5987C110.774 28.6154 113.953 36.1471 115.164 38.9381C115.9 40.6048 116.441 40.8435 116.787 40.9081C117.069 40.9508 117.285 40.9732 117.501 40.9732C117.675 40.9732 117.76 41.0371 117.76 41.1679C117.76 41.3188 117.652 41.3623 116.939 41.3623C116.268 41.3623 114.883 41.3623 113.283 41.3188C112.936 41.2977 112.721 41.2977 112.721 41.1679C112.721 41.0596 112.763 40.9948 112.959 40.9732C113.089 40.9508 113.217 40.7788 113.131 40.5617L111.661 36.8611C111.617 36.7523 111.552 36.7312 111.466 36.7312H106.988Z" fill="#979797"/>
<path d="M141.71 31.8835C141.775 31.8835 141.84 31.8407 141.84 31.7321V31.2778C141.84 27.9881 141.84 27.3824 141.797 26.6901C141.754 25.9542 141.581 25.6069 140.867 25.456C140.694 25.4124 140.326 25.3909 140.023 25.3909C139.786 25.3909 139.656 25.3486 139.656 25.1968C139.656 25.0453 139.807 25.0018 140.11 25.0018C141.278 25.0018 142.641 25.0665 143.225 25.0665C143.743 25.0665 145.107 25.0018 145.95 25.0018C146.253 25.0018 146.404 25.0453 146.404 25.1968C146.404 25.3486 146.275 25.3909 146.015 25.3909C145.842 25.3909 145.648 25.4124 145.388 25.456C144.804 25.5642 144.631 25.9317 144.588 26.6901C144.544 27.3824 144.544 27.9881 144.544 31.2778V35.0868C144.544 37.0776 144.544 38.787 144.653 39.7184C144.717 40.3246 144.847 40.7998 145.496 40.8856C145.798 40.9297 146.275 40.9732 146.6 40.9732C146.837 40.9732 146.946 41.0371 146.946 41.1468C146.946 41.2977 146.772 41.3623 146.512 41.3623C145.107 41.3623 143.743 41.2977 143.138 41.2977C142.641 41.2977 141.278 41.3623 140.434 41.3623C140.131 41.3623 139.979 41.2977 139.979 41.1468C139.979 41.0371 140.066 40.9732 140.326 40.9732C140.65 40.9732 140.911 40.9297 141.104 40.8856C141.537 40.7998 141.645 40.3246 141.732 39.6956C141.84 38.787 141.84 37.0776 141.84 35.0868V33.1813C141.84 33.0951 141.775 33.052 141.71 33.052H133.448C133.382 33.052 133.317 33.0741 133.317 33.1813V35.0868C133.317 37.0776 133.317 38.787 133.426 39.7184C133.49 40.3246 133.62 40.7998 134.269 40.8856C134.572 40.9297 135.048 40.9732 135.373 40.9732C135.61 40.9732 135.718 41.0371 135.718 41.1468C135.718 41.2977 135.546 41.3623 135.286 41.3623C133.88 41.3623 132.517 41.2977 131.911 41.2977C131.415 41.2977 130.052 41.3623 129.186 41.3623C128.904 41.3623 128.753 41.2977 128.753 41.1468C128.753 41.0371 128.84 40.9732 129.1 40.9732C129.423 40.9732 129.684 40.9297 129.878 40.8856C130.311 40.7998 130.419 40.3246 130.506 39.6956C130.613 38.787 130.613 37.0776 130.613 35.0868V31.2778C130.613 27.9881 130.613 27.3824 130.57 26.6901C130.527 25.9542 130.355 25.6069 129.64 25.456C129.467 25.4124 129.1 25.3909 128.797 25.3909C128.559 25.3909 128.429 25.3486 128.429 25.1968C128.429 25.0453 128.58 25.0018 128.883 25.0018C130.052 25.0018 131.415 25.0665 131.998 25.0665C132.517 25.0665 133.88 25.0018 134.723 25.0018C135.026 25.0018 135.177 25.0453 135.177 25.1968C135.177 25.3486 135.048 25.3909 134.788 25.3909C134.616 25.3909 134.421 25.4124 134.161 25.456C133.577 25.5642 133.404 25.9317 133.361 26.6901C133.317 27.3824 133.317 27.9881 133.317 31.2778V31.7321C133.317 31.8407 133.382 31.8835 133.448 31.8835H141.71Z" fill="#979797"/>
<path d="M166.177 34.7395C166.177 30.6718 163.732 28.1607 160.66 28.1607C158.541 28.1607 156.054 29.2858 156.054 33.8311C156.054 37.6181 158.216 40.6049 161.807 40.6049C163.148 40.6049 166.177 39.9773 166.177 34.7395ZM153.241 34.3942C153.241 31.2558 155.447 27.1867 161.223 27.1867C166.025 27.1867 169.01 29.8495 169.01 34.0693C169.01 38.2894 165.939 41.6011 161.028 41.6011C155.491 41.6011 153.241 37.6618 153.241 34.3942Z" fill="#979797"/>
<path d="M176.705 32.7709C176.705 29.9791 176.726 29.4604 176.681 28.8755C176.639 28.226 176.466 28.0529 175.86 27.8796C175.709 27.8369 175.385 27.8157 175.125 27.8157C174.909 27.8157 174.8 27.7506 174.8 27.6198C174.8 27.4899 174.931 27.4478 175.212 27.4478C176.227 27.4478 177.504 27.4899 178.067 27.4899C178.542 27.4899 179.818 27.4478 180.512 27.4478C180.792 27.4478 180.922 27.4899 180.922 27.6198C180.922 27.7506 180.814 27.8157 180.619 27.8157C180.403 27.8157 180.296 27.8369 180.058 27.8796C179.56 27.9671 179.408 28.226 179.364 28.8755C179.322 29.4604 179.322 29.9791 179.322 32.7709V35.3457C179.322 38.0296 179.841 39.0684 180.771 39.8043C181.614 40.4756 182.523 40.5407 183.172 40.5407C183.994 40.5407 184.967 40.3022 185.724 39.5658C186.784 38.5702 186.828 36.9694 186.828 35.0869V32.7709C186.828 29.9791 186.807 29.4604 186.784 28.8755C186.742 28.2474 186.59 28.0529 185.984 27.8796C185.834 27.8369 185.508 27.8157 185.292 27.8157C185.076 27.8157 184.967 27.7506 184.967 27.6198C184.967 27.4899 185.098 27.4478 185.356 27.4478C186.33 27.4478 187.606 27.4899 187.628 27.4899C187.844 27.4899 189.121 27.4478 189.856 27.4478C190.116 27.4478 190.245 27.4899 190.245 27.6198C190.245 27.7506 190.137 27.8157 189.921 27.8157C189.704 27.8157 189.596 27.8369 189.359 27.8796C188.84 27.9671 188.709 28.226 188.666 28.8755C188.644 29.4604 188.623 29.9791 188.623 32.7709V34.7395C188.623 36.7961 188.406 38.9607 186.807 40.2797C185.465 41.4052 184.015 41.6011 182.783 41.6011C181.787 41.6011 179.818 41.557 178.435 40.3457C177.462 39.5019 176.705 38.1379 176.705 35.4759V32.7709Z" fill="#979797"/>
<path d="M197.252 41.1244C196.949 40.9949 196.884 40.9082 196.884 40.4966C196.884 39.5019 196.97 38.3545 196.992 38.0512C196.992 37.7704 197.08 37.5754 197.231 37.5754C197.403 37.5754 197.425 37.748 197.425 37.8778C197.425 38.116 197.49 38.5054 197.599 38.8308C198.009 40.1939 199.436 40.6481 200.626 40.6481C202.27 40.6481 203.265 39.6093 203.265 38.311C203.265 37.5098 203.071 36.7097 201.383 35.7141L200.281 35.0649C198.031 33.7449 197.295 32.5112 197.295 30.8889C197.295 28.6379 199.459 27.1867 202.098 27.1867C203.33 27.1867 204.303 27.3601 204.802 27.4899C204.974 27.5336 205.06 27.5988 205.06 27.7286C205.06 27.9671 204.996 28.4856 204.996 29.9359C204.996 30.325 204.909 30.5208 204.758 30.5208C204.629 30.5208 204.564 30.4111 204.564 30.1956C204.564 30.0221 204.477 29.4605 204.066 28.9834C203.784 28.6379 203.179 28.1186 201.947 28.1186C200.584 28.1186 199.35 28.8315 199.35 30.0877C199.35 30.9099 199.653 31.5591 201.362 32.5112L202.14 32.9438C204.65 34.3294 205.428 35.7357 205.428 37.4026C205.428 38.766 204.909 39.8696 203.526 40.8436C202.617 41.4919 201.362 41.6011 200.344 41.6011C199.242 41.6011 198.074 41.4919 197.252 41.1244Z" fill="#979797"/>
<path d="M213.863 32.771C213.863 29.9791 213.863 29.4605 213.842 28.8756C213.799 28.2474 213.626 28.053 213.02 27.8796C212.869 27.8369 212.544 27.8157 212.263 27.8157C212.069 27.8157 211.939 27.7506 211.939 27.6198C211.939 27.49 212.09 27.4479 212.371 27.4479C213.367 27.4479 214.578 27.49 215.118 27.49C215.723 27.49 219.942 27.5116 220.31 27.49C220.656 27.4689 220.959 27.4038 221.11 27.3826C221.22 27.3601 221.327 27.2959 221.413 27.2959C221.522 27.2959 221.543 27.3826 221.543 27.4689C221.543 27.5988 221.435 27.8157 221.392 28.659C221.37 28.854 221.327 29.6537 221.283 29.8708C221.262 29.957 221.22 30.1736 221.068 30.1736C220.938 30.1736 220.916 30.0878 220.916 29.9359C220.916 29.8057 220.894 29.4818 220.786 29.2647C220.635 28.9412 220.484 28.6802 219.531 28.5939C219.207 28.5507 216.936 28.5081 216.546 28.5081C216.459 28.5081 216.417 28.5728 216.417 28.6802V33.2255C216.417 33.3335 216.438 33.4205 216.546 33.4205C216.979 33.4205 219.445 33.4205 219.878 33.377C220.332 33.3335 220.612 33.2906 220.786 33.0953C220.938 32.9654 221.003 32.8577 221.089 32.8577C221.175 32.8577 221.241 32.9438 221.241 33.0522C221.241 33.1599 221.196 33.4632 221.089 34.3942C221.045 34.762 221.003 35.4972 221.003 35.628C221.003 35.7789 220.981 36.0384 220.807 36.0384C220.678 36.0384 220.635 35.9747 220.635 35.8875C220.612 35.6931 220.612 35.4549 220.57 35.2164C220.462 34.8484 220.223 34.5676 219.51 34.5025C219.163 34.4588 217 34.4161 216.525 34.4161C216.438 34.4161 216.417 34.5025 216.417 34.6108V36.0822C216.417 36.7098 216.394 38.267 216.417 38.8087C216.459 40.0636 217.044 40.3458 218.991 40.3458C219.488 40.3458 220.288 40.3247 220.786 40.1076C221.262 39.8907 221.478 39.502 221.608 38.745C221.651 38.5492 221.695 38.4628 221.824 38.4628C221.976 38.4628 221.997 38.7005 221.997 38.896C221.997 39.3066 221.846 40.5618 221.737 40.9298C221.608 41.4053 221.435 41.4053 220.721 41.4053C219.293 41.4053 218.147 41.384 217.216 41.34C216.287 41.3189 215.572 41.2979 215.011 41.2979C214.794 41.2979 214.382 41.3189 213.928 41.3189C213.474 41.34 212.999 41.3625 212.609 41.3625C212.371 41.3625 212.242 41.2979 212.242 41.168C212.242 41.0817 212.306 40.9734 212.544 40.9734C212.826 40.9734 213.042 40.9509 213.215 40.9083C213.604 40.8216 213.711 40.4756 213.777 39.9342C213.863 39.1552 213.863 37.7059 213.863 36.0171V32.771Z" fill="#979797"/>
</svg>
