<svg width="55" height="60" viewBox="0 0 55 60" fill="none" xmlns="http://www.w3.org/2000/svg">
<g filter="url(#filter0_d_136_3037)">
<rect x="2" y="10.208" width="46" height="46" rx="6" fill="#1E1E1E" fill-opacity="0.42" shape-rendering="crispEdges"/>
<path d="M16.75 25.8745H17.3058C18.2414 25.8745 19.0269 26.579 19.1283 27.509L19.8717 34.3233C19.9732 35.2534 20.7586 35.9578 21.6942 35.9578H29.6255C30.4636 35.9578 31.1949 35.3896 31.402 34.5775L32.6669 29.6174C32.9626 28.4582 32.0867 27.331 30.8905 27.331H20.05M20.0727 39.2807H20.7602M20.0727 39.9682H20.7602M30.156 39.2807H30.8435M30.156 39.9682H30.8435M21.3333 39.6245C21.3333 40.1308 20.9229 40.5412 20.4167 40.5412C19.9104 40.5412 19.5 40.1308 19.5 39.6245C19.5 39.1183 19.9104 38.7078 20.4167 38.7078C20.9229 38.7078 21.3333 39.1183 21.3333 39.6245ZM31.4167 39.6245C31.4167 40.1308 31.0063 40.5412 30.5 40.5412C29.9937 40.5412 29.5833 40.1308 29.5833 39.6245C29.5833 39.1183 29.9937 38.7078 30.5 38.7078C31.0063 38.7078 31.4167 39.1183 31.4167 39.6245Z" stroke="white" stroke-width="2" stroke-linecap="round"/>
</g>
<rect x="37" y="0.183594" width="18" height="18" rx="9" fill="#D3AD7F"/>
<path d="M45.701 14.3129C45.067 14.3129 44.5007 14.2036 44.0021 13.9851C43.5066 13.7666 43.1142 13.4634 42.8249 13.0756C42.5387 12.6848 42.3848 12.2324 42.3633 11.7184H43.8129C43.8313 11.9985 43.9252 12.2416 44.0945 12.4478C44.2668 12.6509 44.4915 12.8079 44.7685 12.9187C45.0455 13.0295 45.3532 13.0849 45.6918 13.0849C46.0642 13.0849 46.3935 13.0202 46.6797 12.891C46.969 12.7617 47.1952 12.5817 47.3583 12.3509C47.5214 12.117 47.603 11.8477 47.603 11.543C47.603 11.226 47.5214 10.9474 47.3583 10.7074C47.1983 10.4643 46.9628 10.2734 46.652 10.1349C46.3442 9.99645 45.9718 9.9272 45.5348 9.9272H44.7362V8.76385H45.5348C45.8857 8.76385 46.1934 8.70076 46.4581 8.57457C46.7259 8.44839 46.9351 8.27296 47.0859 8.0483C47.2367 7.82055 47.3121 7.55433 47.3121 7.24964C47.3121 6.95727 47.246 6.70336 47.1136 6.48793C46.9844 6.26941 46.7997 6.0986 46.5597 5.9755C46.3227 5.85239 46.0426 5.79084 45.7195 5.79084C45.4117 5.79084 45.1239 5.84777 44.8562 5.96165C44.5915 6.07244 44.3761 6.23248 44.2099 6.44176C44.0437 6.64796 43.9544 6.89571 43.9421 7.18501H42.5618C42.5772 6.67412 42.728 6.22479 43.0142 5.837C43.3035 5.44922 43.6851 5.14607 44.1591 4.92756C44.633 4.70904 45.1593 4.59979 45.7379 4.59979C46.3442 4.59979 46.8674 4.71828 47.3075 4.95526C47.7507 5.18916 48.0923 5.50154 48.3324 5.8924C48.5755 6.28326 48.6955 6.71106 48.6925 7.17578C48.6955 7.70514 48.5478 8.15447 48.2493 8.52379C47.9538 8.89311 47.5599 9.14086 47.0675 9.26705V9.34091C47.6953 9.43632 48.1816 9.68561 48.5263 10.0888C48.8741 10.492 49.0464 10.9921 49.0433 11.5891C49.0464 12.1093 48.9018 12.5755 48.6094 12.9879C48.3201 13.4003 47.9246 13.725 47.4229 13.962C46.9213 14.1959 46.3473 14.3129 45.701 14.3129Z" fill="white"/>
<defs>
<filter id="filter0_d_136_3037" x="0" y="9.20801" width="50" height="50" filterUnits="userSpaceOnUse" color-interpolation-filters="sRGB">
<feFlood flood-opacity="0" result="BackgroundImageFix"/>
<feColorMatrix in="SourceAlpha" type="matrix" values="0 0 0 0 0 0 0 0 0 0 0 0 0 0 0 0 0 0 127 0" result="hardAlpha"/>
<feOffset dy="1"/>
<feGaussianBlur stdDeviation="1"/>
<feComposite in2="hardAlpha" operator="out"/>
<feColorMatrix type="matrix" values="0 0 0 0 0.0627451 0 0 0 0 0.0941176 0 0 0 0 0.156863 0 0 0 0.04 0"/>
<feBlend mode="normal" in2="BackgroundImageFix" result="effect1_dropShadow_136_3037"/>
<feBlend mode="normal" in="SourceGraphic" in2="effect1_dropShadow_136_3037" result="shape"/>
</filter>
</defs>
</svg>
