<svg width="247" height="163" viewBox="0 0 247 163" fill="none" xmlns="http://www.w3.org/2000/svg">
<path d="M196.611 0.588881C195.764 1.24507 195.606 2.45777 196.262 3.30501C197.242 4.56704 196.578 6.76693 195.815 9.29905L195.814 9.30208C194.551 13.5133 193.089 18.4057 196.536 23.8462C197.118 24.7516 198.314 25.0174 199.219 24.4443C200.125 23.8628 200.39 22.6667 199.817 21.7614C197.317 17.8159 198.505 13.8289 199.535 10.4068L199.536 10.4043C200.599 6.8586 201.52 3.78609 199.327 0.937741C198.671 0.0905099 197.458 -0.0673078 196.611 0.588881Z" fill="#D3AD7F"/>
<path d="M164.342 0.588881C163.494 1.24507 163.337 2.45777 163.993 3.30501C164.965 4.56755 164.308 6.76869 163.544 9.30208C162.282 13.5133 160.82 18.4057 164.267 23.8462C164.848 24.7516 166.044 25.0174 166.95 24.4443C167.855 23.8628 168.121 22.6667 167.548 21.7614C165.048 17.8159 166.235 13.8289 167.265 10.4068L167.266 10.4043C168.329 6.8586 169.25 3.78609 167.058 0.937741C166.402 0.0905099 165.189 -0.0673078 164.342 0.588881Z" fill="#D3AD7F"/>
<path d="M180.481 0.588881C179.633 1.24507 179.475 2.45777 180.132 3.30501C181.103 4.56755 180.447 6.76869 179.683 9.30208L179.681 9.31065C178.419 13.52 176.953 18.4094 180.406 23.8462C180.987 24.7516 182.183 25.0174 183.089 24.4443C183.994 23.8628 184.26 22.6667 183.687 21.7614C181.187 17.8159 182.374 13.8289 183.404 10.4068L183.405 10.4043C184.468 6.8586 185.389 3.78609 183.197 0.937741C182.54 0.0905099 181.328 -0.0673078 180.481 0.588881Z" fill="#D3AD7F"/>
<path d="M18.1771 82.7661C19.8938 82.7661 21.5853 82.7661 23.2515 82.7661C24.9682 82.7661 26.6849 82.7156 28.4017 82.6146C29.0581 82.5137 29.6892 82.4379 30.2951 82.3874C30.901 82.2865 31.5322 82.135 32.1886 81.933C34.5617 81.4281 36.96 80.6202 39.3836 79.5094C41.8073 78.3481 44.0036 76.9596 45.9728 75.3438C47.9925 73.6776 49.7092 71.7842 51.123 69.6635C52.5368 67.4923 53.4456 65.1445 53.8496 62.6199C54.001 61.7615 54.0515 60.9284 54.001 60.1205C54.001 59.2622 53.9505 58.4038 53.8496 57.5455C53.5971 55.9802 53.1174 54.5159 52.4105 53.1527C51.7037 51.7389 50.8453 50.4261 49.8355 49.2143C48.8256 48.0025 47.6896 46.9169 46.4273 45.9576C45.165 44.9478 43.8522 44.0641 42.4889 43.3068C42.3879 43.2058 42.2869 43.1553 42.1859 43.1553C42.1354 43.1048 42.0597 43.0291 41.9587 42.9281C39.0302 41.3123 35.9502 40.1005 32.7187 39.2927C29.4872 38.4848 26.2053 38.1314 22.8728 38.2323H19.6918V36.6418H26.6597C28.6289 36.6418 30.5476 36.4146 32.4158 35.9602C35.6472 35.1018 38.1466 33.6123 39.9138 31.4917C41.681 29.3205 42.4132 26.5435 42.1102 23.1605C41.9587 20.9894 41.4286 19.2474 40.5197 17.9346C39.6109 16.5713 38.4748 15.511 37.1115 14.7536C35.7482 13.9963 34.183 13.4913 32.4158 13.2389C30.699 12.9864 28.9066 12.8602 27.0384 12.8602C26.2305 12.8602 25.2964 12.8854 24.2361 12.9359C23.2262 12.9359 22.2669 12.9359 21.3581 12.9359C20.2977 12.9864 19.2374 13.0117 18.1771 13.0117V82.7661ZM6.13476 22.2517C6.03378 20.2825 5.78132 18.692 5.37738 17.4802C4.97345 16.2684 4.46853 15.3343 3.86263 14.6779C3.30722 14.0215 2.67607 13.5923 1.96918 13.3904C1.31279 13.1379 0.656394 13.0117 0 13.0117V11.3454H29.6135C34.2587 11.0425 38.2981 11.3454 41.7315 12.2543C45.165 13.1631 47.9168 14.4507 49.9869 16.1169C52.1076 17.7327 53.5214 19.6009 54.2282 21.7215C54.9351 23.7917 54.8341 25.8366 53.9253 27.8563C53.0669 29.8759 51.3755 31.7694 48.8509 33.5366C46.3768 35.2533 42.9938 36.5409 38.702 37.3992C44.5086 38.7625 49.3053 40.5045 53.0922 42.6251C56.8791 44.6953 59.8076 46.9674 61.8778 49.4415C63.9479 51.9156 65.2355 54.516 65.7404 57.2425C66.2453 59.9186 66.0938 62.5694 65.286 65.195C64.4781 67.7701 63.1148 70.2442 61.1961 72.6173C59.2774 74.9399 56.9043 76.9848 54.0768 78.752C51.2997 80.4688 48.144 81.832 44.6095 82.8419C41.1256 83.8517 37.4145 84.3061 33.4761 84.2051H0.151476V82.6904C0.605902 82.6904 1.13607 82.5642 1.74197 82.3117C2.39836 82.0592 3.02951 81.5796 3.63541 80.8727C4.24132 80.1658 4.77148 79.2065 5.22591 77.9946C5.73082 76.7828 6.03378 75.2428 6.13476 73.3746V22.2517Z" fill="#FFF6EB"/>
<path d="M84.3115 37.7779V38.0809C84.4125 37.8284 84.4882 37.6264 84.5387 37.475C84.6397 37.273 84.7407 37.0458 84.8417 36.7933L84.3115 37.7779ZM147.401 49.5173C147.351 47.4471 146.997 45.3517 146.341 43.231C145.684 41.1104 144.725 39.1917 143.463 37.475C142.2 35.7077 140.66 34.2687 138.843 33.1579C137.076 32.0471 135.005 31.4917 132.632 31.4917C130.259 31.4917 128.138 32.0723 126.27 33.2336C124.453 34.3445 122.837 35.7835 121.423 37.5507C120.06 39.2674 118.924 41.1861 118.015 43.3068C117.106 45.4274 116.424 47.4976 115.97 49.5173H147.401ZM66.2102 84.2051V82.6904C66.8666 82.6904 67.5482 82.5894 68.2551 82.3874C68.962 82.1855 69.6184 81.7815 70.2243 81.1756C70.8302 80.5192 71.3099 79.5851 71.6633 78.3733C72.0672 77.111 72.244 75.4448 72.1935 73.3746V41.1861C72.1935 37.7022 71.7391 35.2533 70.8302 33.8396C69.9718 32.3753 68.4571 31.6432 66.2859 31.6432V30.2041H84.3115V37.7779C84.5135 37.374 84.7155 36.9953 84.9174 36.6418C85.1194 36.2884 85.3718 35.9097 85.6748 35.5058V35.5815L85.7505 35.5058C87.0633 33.4356 88.78 31.8704 90.9007 30.81C93.0214 29.7497 95.2935 29.2195 97.7171 29.2195C100.646 29.2195 102.994 29.4973 104.761 30.0527C106.578 30.6081 107.942 31.315 108.851 32.1733C109.81 32.9812 110.391 33.8648 110.593 34.8241C110.795 35.7835 110.719 36.6923 110.365 37.5507C110.062 38.3586 109.583 39.0402 108.926 39.5956C108.27 40.151 107.538 40.4287 106.73 40.4287L103.928 40.2773C104.634 39.2169 104.912 38.1061 104.761 36.9448C104.609 35.7835 104.155 34.7232 103.397 33.7638C102.691 32.754 101.706 31.9461 100.444 31.3402C99.2319 30.6838 97.8938 30.3556 96.4296 30.3556C95.2178 30.3556 94.0312 30.5828 92.8699 31.0373C91.7591 31.4917 90.724 32.1228 89.7646 32.9307C88.8053 33.6881 87.9217 34.5717 87.1138 35.5815C86.3564 36.5409 85.7505 37.5507 85.2961 38.611C84.8922 39.6714 84.7407 40.8074 84.8417 42.0192C84.9932 43.1805 85.4981 44.1399 86.3564 44.8973C87.2653 45.7051 88.4771 46.412 89.9919 47.0179C91.5571 47.5733 93.2233 48.0278 94.9905 48.3812C96.8083 48.7346 98.6512 49.0123 100.519 49.2143C102.388 49.3658 104.104 49.4668 105.67 49.5173C106.477 46.9422 107.639 44.4933 109.154 42.1707C110.719 39.8481 112.637 37.8284 114.91 36.1117C117.182 34.3445 119.782 32.9559 122.711 31.9461C125.69 30.8858 128.997 30.3556 132.632 30.3556C135.005 30.3556 137.404 30.8605 139.827 31.8704C142.301 32.8802 144.523 34.294 146.492 36.1117C148.461 37.8789 150.077 39.9996 151.339 42.4737C152.602 44.9478 153.233 47.6743 153.233 50.6533H115.743C115.541 51.8146 115.389 52.9507 115.288 54.0615C115.238 55.1219 115.213 56.2327 115.213 57.394C115.213 61.5343 115.743 65.2202 116.803 68.4517C117.863 71.6327 119.277 74.334 121.044 76.5556C122.812 78.7773 124.882 80.4688 127.255 81.6301C129.628 82.7914 132.127 83.372 134.753 83.372C136.419 83.372 138.136 83.1196 139.903 82.6146C141.67 82.0592 143.362 81.3271 144.977 80.4183C146.593 79.5094 148.083 78.4238 149.446 77.1615C150.809 75.8992 151.92 74.536 152.778 73.0717L153.839 73.6776C152.879 75.1924 151.668 76.6061 150.203 77.9189C148.79 79.2317 147.224 80.393 145.508 81.4029C143.791 82.3622 141.998 83.1196 140.13 83.675C138.313 84.2304 136.495 84.5081 134.677 84.5081C128.618 84.5081 123.493 83.473 119.302 81.4029C115.112 79.2822 111.804 76.5809 109.381 73.2989C107.008 70.0169 105.493 66.3815 104.836 62.3927C104.18 58.4038 104.357 54.4907 105.367 50.6533C103.599 50.6028 101.655 50.5019 99.5348 50.3504C97.4142 50.1484 95.344 49.8455 93.3243 49.4415C91.3551 49.0376 89.5374 48.4822 87.8712 47.7753C86.2555 47.0179 85.0689 46.0586 84.3115 44.8973V75.0409C84.5135 78.0199 85.1194 80.0396 86.1292 81.0999C87.1391 82.1602 88.5276 82.7156 90.2948 82.7661V84.2051H66.2102Z" fill="#FFF6EB"/>
<path d="M153.274 35.5058C152.466 34.1425 151.355 33.1327 149.941 32.4763C148.578 31.7694 147.316 31.4159 146.154 31.4159V30.2041H164.256C164.609 31.4664 165.165 33.4356 165.922 36.1117C166.73 38.7373 167.613 41.6658 168.573 44.8973C169.532 48.0782 170.491 51.3602 171.451 54.7432C172.461 58.0756 173.369 61.0799 174.177 63.756C174.834 61.6353 175.49 59.4389 176.147 57.1668C176.853 54.8442 177.485 52.7235 178.04 50.8048C178.747 48.4822 179.428 46.21 180.085 43.9884L179.327 41.4891C178.924 40.0753 178.494 38.813 178.04 37.7022C177.636 36.5409 177.182 35.531 176.677 34.6727C176.02 33.4104 174.985 32.552 173.571 32.0976C172.158 31.6432 170.895 31.4159 169.785 31.4159V30.2041H194.096V31.4159C193.541 31.4159 192.986 31.4664 192.43 31.5674C191.875 31.6179 191.37 31.7441 190.915 31.9461C190.511 32.1481 190.208 32.451 190.007 32.855C189.805 33.2589 189.754 33.8143 189.855 34.5212C190.057 35.43 190.259 36.4651 190.461 37.6264C190.663 38.7373 190.966 40.0248 191.37 41.4891C192.178 44.2156 192.986 46.9169 193.793 49.593C194.5 51.8651 195.232 54.2887 195.99 56.8638C196.747 59.3884 197.429 61.711 198.035 63.8317C198.59 61.913 199.196 59.8428 199.852 57.6212C200.559 55.3491 201.241 53.0769 201.897 50.8048C202.604 48.4822 203.286 46.21 203.942 43.9884C204.599 41.7163 205.205 39.6714 205.76 37.8536C206.315 35.9854 206.77 34.3697 207.123 33.0064C207.527 31.6432 207.805 30.7091 207.956 30.2041H215V31.4159C214.344 31.4159 213.662 31.4412 212.955 31.4917C212.299 31.4917 211.668 31.6432 211.062 31.9461C210.456 32.1986 209.875 32.653 209.32 33.3094C208.764 33.9153 208.259 34.7989 207.805 35.9602C207.098 37.5255 206.442 39.3684 205.836 41.4891C204.775 45.0235 203.715 48.5832 202.655 52.1681C201.746 55.2986 200.736 58.6815 199.625 62.3169C198.565 65.9019 197.555 69.2848 196.596 72.4658C196.091 74.0815 195.611 75.6215 195.157 77.0858C194.753 78.4996 194.399 79.7366 194.096 80.7969C193.692 82.0592 193.339 83.1953 193.036 84.2051H191.9L180.691 45.8061C180.236 47.2704 179.757 48.8356 179.252 50.5019C178.848 51.9661 178.368 53.6323 177.813 55.5005C177.257 57.3182 176.651 59.2874 175.995 61.4081C175.187 64.0842 174.379 66.7602 173.571 69.4363C172.814 72.1124 172.107 74.5612 171.451 76.7828C170.693 79.3579 169.961 81.832 169.254 84.2051H168.118C167.765 83.0438 167.386 81.7563 166.982 80.3425C166.629 79.1812 166.2 77.7927 165.695 76.1769C165.24 74.5612 164.735 72.8192 164.18 70.951C163.271 67.7701 162.287 64.4628 161.226 61.0294C160.216 57.596 159.282 54.4402 158.424 51.5622C157.414 48.1287 156.429 44.771 155.47 41.4891C155.066 40.3277 154.688 39.2422 154.334 38.2323C154.031 37.2225 153.678 36.3136 153.274 35.5058Z" fill="#FFF6EB"/>
<path d="M99.4556 66.4541C99.1644 68.2979 98.5013 69.7858 97.4663 70.9179C96.4312 72.05 95.1697 72.9396 93.6817 73.5865C92.1938 74.2011 90.528 74.6054 88.6842 74.7995C86.8405 74.9935 84.9482 75.0906 83.0074 75.0906C81.3901 79.2309 79.7566 83.2742 78.107 87.2205C76.4573 91.1667 74.6621 95.1291 72.7213 99.1077C71.8156 100.984 70.7967 102.876 69.6646 104.785C68.5648 106.661 67.3356 108.375 65.9771 109.928C64.6186 111.448 63.1144 112.677 61.4648 113.615C59.8151 114.553 58.0037 115.006 56.0306 114.974C54.3809 114.941 53.0062 114.488 51.9064 113.615C50.8067 112.742 49.9333 111.545 49.2864 110.025C48.6395 108.407 48.2675 106.596 48.1704 104.59C48.0734 102.553 48.1381 100.677 48.3645 98.9622H49.7716C49.6745 99.7708 49.5937 100.628 49.529 101.534C49.4643 102.439 49.4481 103.361 49.4805 104.299C49.5452 105.237 49.6584 106.159 49.8201 107.065C49.9818 107.938 50.2244 108.763 50.5479 109.539C50.7743 110.089 51.0654 110.623 51.4212 111.141C51.8094 111.658 52.2461 112.111 52.7313 112.499C53.2165 112.887 53.734 113.195 54.2839 113.421C54.8661 113.615 55.4807 113.664 56.1276 113.567C56.9686 113.469 57.8258 112.936 58.6992 111.965C59.5725 110.963 60.4297 109.733 61.2707 108.278C62.1441 106.822 62.9689 105.254 63.7452 103.572C64.5215 101.857 65.2331 100.24 65.8801 98.7196C67.5944 94.6439 69.2764 90.6492 70.9261 86.7353C72.5758 82.789 74.4033 78.8266 76.4088 74.848C74.7915 74.7509 73.2712 74.6701 71.848 74.6054C70.4247 74.5407 69.1632 74.5569 68.0634 74.6539C66.996 74.7509 66.1065 74.9612 65.3949 75.2847C64.7156 75.5758 64.3113 76.0448 64.1819 76.6917L62.6293 76.6432C62.9527 74.7671 63.6643 73.2792 64.7641 72.1794C65.8962 71.0473 67.271 70.2063 68.8883 69.6564C70.5379 69.0742 72.3493 68.7184 74.3225 68.589C76.3279 68.4272 78.3496 68.3625 80.3874 68.3949C82.4576 68.4272 84.4792 68.5081 86.4523 68.6375C88.4255 68.7345 90.2207 68.7669 91.838 68.7345C93.4553 68.6698 94.8139 68.4919 95.9136 68.2008C97.0134 67.8773 97.725 67.2951 98.0485 66.4541H99.4556Z" fill="#D3AD7F"/>
<path d="M81.3252 113.081C82.0692 113.081 83.0234 112.677 84.1878 111.868C85.3523 111.06 86.6138 109.992 87.9724 108.666C89.3309 107.34 90.7541 105.836 92.2421 104.154C93.73 102.439 95.1856 100.709 96.6088 98.9622H98.4041C96.8838 100.903 95.2988 102.828 93.6491 104.736C91.9995 106.644 90.3822 108.359 88.7972 109.879C87.2446 111.399 85.7566 112.628 84.3334 113.567C82.9102 114.505 81.6648 114.974 80.5974 114.974C79.4653 114.974 78.6243 114.699 78.0744 114.149C77.5245 113.567 77.2172 112.79 77.1525 111.82C77.0555 110.817 77.1687 109.653 77.4921 108.326C77.8156 107 78.2684 105.593 78.8507 104.105C79.4329 102.617 80.1122 101.081 80.8885 99.4959C81.6648 97.8786 82.4735 96.2936 83.3145 94.741C84.0584 93.3501 84.8024 92.0239 85.5464 90.7624C86.2904 89.4685 86.9858 88.2879 87.6327 87.2205C88.2796 86.153 88.8457 85.2312 89.3309 84.4548C89.8161 83.6462 90.1881 83.0154 90.4468 82.5626H97.4337C97.2396 83.1125 96.8999 83.8888 96.4147 84.8915C95.9296 85.8942 95.3635 87.0264 94.7166 88.2879C94.0696 89.517 93.3742 90.8271 92.6302 92.2179C91.8863 93.6088 91.1423 94.9674 90.3983 96.2936C90.2043 96.6817 89.8161 97.361 89.2339 98.3314C88.684 99.3018 88.037 100.418 87.2931 101.679C86.5815 102.908 85.8375 104.202 85.0612 105.561C84.3172 106.887 83.6379 108.116 83.0234 109.248C82.4411 110.348 81.9883 111.27 81.6648 112.014C81.309 112.726 81.1958 113.081 81.3252 113.081ZM102.868 67.8612C103.547 68.0876 103.935 68.5728 104.032 69.3168C104.129 70.0607 104 70.9179 103.644 71.8883C103.321 72.8263 102.835 73.8129 102.189 74.848C101.542 75.8507 100.798 76.7564 99.9567 77.5651C99.148 78.3414 98.307 78.956 97.4337 79.4088C96.5603 79.8293 95.7355 79.9102 94.9592 79.6514C94.1182 79.3926 93.6168 78.8913 93.4551 78.1473C93.2933 77.371 93.3742 76.5138 93.6977 75.5758C94.0211 74.6054 94.5225 73.6188 95.2018 72.6161C95.9134 71.581 96.7059 70.6753 97.5792 69.899C98.4526 69.1227 99.3583 68.5243 100.296 68.1038C101.234 67.6833 102.092 67.6024 102.868 67.8612Z" fill="#D3AD7F"/>
<path d="M144.199 98.9622C142.679 100.903 141.094 102.828 139.444 104.736C137.827 106.644 136.226 108.359 134.641 109.879C133.056 111.399 131.552 112.628 130.129 113.567C128.738 114.505 127.509 114.974 126.441 114.974C124.986 114.974 123.95 114.569 123.336 113.761C122.754 112.952 122.479 111.868 122.511 110.51C122.576 109.151 122.883 107.615 123.433 105.9C124.015 104.154 124.711 102.359 125.519 100.515C126.36 98.6711 127.266 96.8435 128.236 95.0321C129.207 93.2207 130.129 91.571 131.002 90.0831C131.875 88.5628 132.635 87.3013 133.282 86.2986C133.929 85.2635 134.35 84.6004 134.544 84.3093C134.059 84.3093 133.396 84.5519 132.555 85.0371C131.746 85.4899 130.84 86.1045 129.837 86.8808C128.867 87.6571 127.832 88.5305 126.732 89.5009C125.665 90.4713 124.614 91.4578 123.578 92.4605C122.576 93.4633 121.622 94.4337 120.716 95.3717C119.842 96.2774 119.115 97.0537 118.532 97.7007C117.627 99.5767 116.673 101.437 115.67 103.28C114.699 105.124 113.778 106.838 112.904 108.423C112.063 109.976 111.335 111.335 110.721 112.499C110.106 113.664 109.75 114.488 109.653 114.974H105.578C105.222 113.744 105.287 112.143 105.772 110.17C106.257 108.165 106.969 106.03 107.907 103.766C108.845 101.469 109.912 99.1724 111.109 96.8758C112.306 94.5792 113.438 92.5091 114.505 90.6653C115.573 88.7893 116.462 87.269 117.174 86.1045C117.918 84.9077 118.29 84.3093 118.29 84.3093C117.805 84.1799 117.158 84.3255 116.349 84.746C115.54 85.1665 114.635 85.7649 113.632 86.5412C112.629 87.3175 111.578 88.2232 110.478 89.2583C109.411 90.261 108.36 91.2799 107.324 92.315C106.289 93.3501 105.319 94.3528 104.413 95.3232C103.54 96.2936 102.812 97.1022 102.23 97.7492C100.742 100.628 99.2702 103.491 97.8146 106.337C96.3914 109.184 94.952 112.062 93.4964 114.974H86.0729C88.6929 109.604 91.3453 104.267 94.0301 98.9622C96.6825 93.625 99.4481 88.1585 102.327 82.5626H110.284L104.704 92.9458C105.804 91.7813 107.001 90.6006 108.295 89.4038C109.589 88.1747 110.866 87.0587 112.128 86.056C113.422 85.0209 114.667 84.1799 115.864 83.533C117.093 82.886 118.177 82.5626 119.115 82.5626C120.247 82.5626 121.055 82.8699 121.541 83.4844C122.058 84.0667 122.333 84.8592 122.365 85.8619C122.398 86.8323 122.22 87.9968 121.832 89.3553C121.476 90.6815 120.991 92.1048 120.376 93.625C121.476 92.4606 122.689 91.2314 124.015 89.9375C125.341 88.6113 126.684 87.4145 128.042 86.3471C129.401 85.2473 130.711 84.3416 131.972 83.63C133.266 82.9184 134.414 82.5626 135.417 82.5626C136.873 82.5626 137.827 82.9993 138.28 83.8726C138.765 84.746 138.894 85.9104 138.668 87.366C138.442 88.7892 137.94 90.4227 137.164 92.2665C136.42 94.0779 135.563 95.9378 134.592 97.8462C133.654 99.7223 132.668 101.582 131.633 103.426C130.598 105.237 129.692 106.871 128.916 108.326C128.139 109.75 127.557 110.898 127.169 111.771C126.813 112.645 126.813 113.081 127.169 113.081C127.913 113.081 128.851 112.677 129.983 111.868C131.148 111.06 132.409 109.992 133.768 108.666C135.126 107.34 136.549 105.836 138.037 104.154C139.525 102.439 140.981 100.709 142.404 98.9622H144.199Z" fill="#D3AD7F"/>
<path d="M167.853 98.9622C166.624 100.515 165.136 102.229 163.389 104.105C161.675 105.949 159.831 107.68 157.858 109.297C155.917 110.914 153.928 112.273 151.89 113.372C149.853 114.44 147.944 114.974 146.165 114.974C144.03 114.974 142.332 114.521 141.071 113.615C139.841 112.677 138.984 111.448 138.499 109.928C138.014 108.407 137.884 106.677 138.111 104.736C138.305 102.795 138.774 100.822 139.518 98.8166C140.262 96.7788 141.232 94.7895 142.429 92.8487C143.658 90.9079 145.033 89.1774 146.553 87.6571C148.106 86.1368 149.788 84.9077 151.599 83.9696C153.411 83.0316 155.271 82.5626 157.179 82.5626C159.314 82.5626 160.85 83.0316 161.788 83.9696C162.726 84.9077 163.163 86.0722 163.098 87.4631C163.034 88.8539 162.532 90.3742 161.594 92.0239C160.689 93.6412 159.459 95.1615 157.907 96.5847C156.387 97.9756 154.591 99.1401 152.521 100.078C150.483 101.016 148.3 101.501 145.971 101.534C145.809 101.987 145.615 102.601 145.389 103.377C145.162 104.121 144.952 104.93 144.758 105.803C144.596 106.644 144.483 107.502 144.418 108.375C144.354 109.248 144.402 110.041 144.564 110.752C144.726 111.432 145.017 111.998 145.437 112.451C145.89 112.871 146.553 113.081 147.427 113.081C148.3 113.081 149.286 112.823 150.386 112.305C151.518 111.787 152.667 111.124 153.831 110.316C155.028 109.507 156.225 108.601 157.422 107.599C158.651 106.564 159.799 105.528 160.867 104.493C161.966 103.426 162.953 102.423 163.826 101.485C164.732 100.515 165.476 99.6738 166.058 98.9622H167.853ZM158.732 86.9293C157.308 86.8323 155.966 87.2366 154.705 88.1423C153.443 89.048 152.295 90.1801 151.26 91.5387C150.225 92.8649 149.303 94.2881 148.494 95.8084C147.718 97.2963 147.103 98.6225 146.65 99.787C148.171 99.787 149.642 99.4797 151.066 98.8651C152.521 98.2182 153.847 97.4257 155.044 96.4877C156.241 95.5496 157.26 94.5469 158.101 93.4795C158.974 92.3797 159.605 91.3608 159.993 90.4227C160.381 89.4523 160.478 88.6437 160.284 87.9968C160.123 87.3498 159.605 86.994 158.732 86.9293Z" fill="#D3AD7F"/>
<g clip-path="url(#clip0_136_3336)">
<path d="M24 150.411C24 143.784 18.6274 138.411 12 138.411C5.37258 138.411 0 143.784 0 150.411C0 156.401 4.3882 161.365 10.125 162.265V153.88H7.07812V150.411H10.125V147.767C10.125 144.76 11.9166 143.099 14.6576 143.099C15.9701 143.099 17.3438 143.333 17.3438 143.333V146.286H15.8306C14.34 146.286 13.875 147.211 13.875 148.161V150.411H17.2031L16.6711 153.88H13.875V162.265C19.6118 161.365 24 156.401 24 150.411Z" fill="white"/>
</g>
<g clip-path="url(#clip1_136_3336)">
<path d="M71.7628 150.687C71.7628 149.871 71.6967 149.051 71.5556 148.249H60.2368V152.87H66.7185C66.4496 154.36 65.5853 155.678 64.3199 156.516V159.515H68.1869C70.4577 157.425 71.7628 154.338 71.7628 150.687Z" fill="white"/>
<path d="M60.2372 162.411C63.4736 162.411 66.203 161.349 68.1916 159.514L64.3246 156.516C63.2487 157.248 61.8598 157.662 60.2416 157.662C57.111 157.662 54.4565 155.55 53.5041 152.711H49.5137V155.802C51.5508 159.854 55.7 162.411 60.2372 162.411Z" fill="white"/>
<path d="M53.4998 152.711C52.9972 151.221 52.9972 149.607 53.4998 148.117V145.026H49.5138C47.8118 148.417 47.8118 152.411 49.5138 155.802L53.4998 152.711Z" fill="white"/>
<path d="M60.2372 143.161C61.948 143.134 63.6015 143.778 64.8405 144.96L68.2666 141.534C66.0972 139.496 63.2179 138.376 60.2372 138.412C55.7 138.412 51.5508 140.969 49.5137 145.026L53.4997 148.117C54.4477 145.273 57.1065 143.161 60.2372 143.161Z" fill="white"/>
</g>
<g clip-path="url(#clip2_136_3336)">
<path d="M117.684 157.114C117.321 157.953 116.891 158.725 116.394 159.434C115.715 160.402 115.16 161.071 114.732 161.443C114.068 162.054 113.357 162.366 112.595 162.384C112.049 162.384 111.389 162.228 110.622 161.913C109.852 161.599 109.145 161.443 108.498 161.443C107.819 161.443 107.091 161.599 106.313 161.913C105.534 162.228 104.906 162.393 104.426 162.409C103.695 162.44 102.967 162.119 102.241 161.443C101.777 161.039 101.197 160.345 100.503 159.363C99.7571 158.314 99.1442 157.098 98.6641 155.712C98.1499 154.214 97.8921 152.763 97.8921 151.359C97.8921 149.751 98.2396 148.364 98.9358 147.201C99.4829 146.267 100.211 145.531 101.122 144.99C102.033 144.449 103.017 144.174 104.077 144.156C104.657 144.156 105.417 144.336 106.362 144.688C107.305 145.042 107.91 145.221 108.175 145.221C108.374 145.221 109.046 145.012 110.186 144.593C111.264 144.206 112.173 144.045 112.918 144.108C114.937 144.271 116.454 145.067 117.463 146.501C115.657 147.595 114.764 149.128 114.782 151.094C114.798 152.625 115.354 153.9 116.446 154.912C116.94 155.381 117.493 155.744 118.108 156.002C117.974 156.389 117.834 156.759 117.684 157.114ZM113.053 138.891C113.053 140.092 112.615 141.212 111.741 142.25C110.686 143.483 109.41 144.195 108.026 144.083C108.009 143.939 107.999 143.787 107.999 143.628C107.999 142.476 108.5 141.243 109.391 140.234C109.836 139.724 110.401 139.299 111.087 138.961C111.772 138.627 112.419 138.443 113.028 138.411C113.046 138.572 113.053 138.732 113.053 138.891V138.891Z" fill="white"/>
</g>
<g clip-path="url(#clip3_136_3336)">
<path d="M160.85 138.411H151.15C147.207 138.411 144 141.618 144 145.561V155.261C144 159.204 147.207 162.411 151.15 162.411H160.85C164.793 162.411 168 159.204 168 155.261V145.561C168 141.618 164.793 138.411 160.85 138.411ZM165.586 155.261C165.586 157.877 163.465 159.997 160.85 159.997H151.15C148.535 159.997 146.414 157.877 146.414 155.261V145.561C146.414 142.946 148.535 140.826 151.15 140.826H160.85C163.465 140.826 165.586 142.946 165.586 145.561V155.261Z" fill="white"/>
<path d="M156 144.204C152.578 144.204 149.793 146.988 149.793 150.411C149.793 153.834 152.578 156.618 156 156.618C159.423 156.618 162.207 153.834 162.207 150.411C162.207 146.988 159.423 144.204 156 144.204ZM156 154.204C153.905 154.204 152.207 152.506 152.207 150.411C152.207 148.316 153.906 146.618 156 146.618C158.095 146.618 159.793 148.316 159.793 150.411C159.793 152.506 158.095 154.204 156 154.204Z" fill="white"/>
<path d="M162.219 145.738C163.04 145.738 163.706 145.072 163.706 144.251C163.706 143.429 163.04 142.763 162.219 142.763C161.397 142.763 160.731 143.429 160.731 144.251C160.731 145.072 161.397 145.738 162.219 145.738Z" fill="white"/>
</g>
<defs>
<clipPath id="clip0_136_3336">
<rect width="24" height="24" fill="white" transform="translate(0 138.411)"/>
</clipPath>
<clipPath id="clip1_136_3336">
<rect width="24" height="24" fill="white" transform="translate(48 138.411)"/>
</clipPath>
<clipPath id="clip2_136_3336">
<rect width="24" height="24" fill="white" transform="translate(96 138.411)"/>
</clipPath>
<clipPath id="clip3_136_3336">
<rect width="24" height="24" fill="white" transform="translate(144 138.411)"/>
</clipPath>
</defs>
</svg>
