<svg width="22" height="23" viewBox="0 0 22 23" fill="none" xmlns="http://www.w3.org/2000/svg">
<path d="M2.75 3.87451H3.30579C4.24136 3.87451 5.02685 4.57897 5.12831 5.50902L5.87169 12.3233C5.97315 13.2534 6.75864 13.9578 7.69421 13.9578H15.6255C16.4636 13.9578 17.1949 13.3896 17.402 12.5775L18.6669 7.61736C18.9626 6.45817 18.0867 5.33099 16.8905 5.33099H6.05M6.07269 17.2807H6.76019M6.07269 17.9682H6.76019M16.156 17.2807H16.8435M16.156 17.9682H16.8435M7.33333 17.6245C7.33333 18.1308 6.92293 18.5412 6.41667 18.5412C5.91041 18.5412 5.5 18.1308 5.5 17.6245C5.5 17.1183 5.91041 16.7078 6.41667 16.7078C6.92293 16.7078 7.33333 17.1183 7.33333 17.6245ZM17.4167 17.6245C17.4167 18.1308 17.0063 18.5412 16.5 18.5412C15.9937 18.5412 15.5833 18.1308 15.5833 17.6245C15.5833 17.1183 15.9937 16.7078 16.5 16.7078C17.0063 16.7078 17.4167 17.1183 17.4167 17.6245Z" stroke="white" stroke-width="2" stroke-linecap="round"/>
</svg>
